<?xml version="1.0" encoding="UTF-8" standalone="no"?>
<!DOCTYPE svg PUBLIC "-//W3C//DTD SVG 1.1//EN" "http://www.w3.org/Graphics/SVG/1.1/DTD/svg11.dtd">
<svg xmlns="http://www.w3.org/2000/svg" xmlns:xlink="http://www.w3.org/1999/xlink" version="1.1" width="300pt" height="50pt" viewBox="10 10 216 38">
<g enable-background="new">
<g id="Layer-1" data-name="Artifact">
<clipPath id="cp0">
<path transform="matrix(1,0,0,-1,0,54)" d="M 0 0 L 234 0 L 234 54 L 0 54 Z "/>
</clipPath>
<g clip-path="url(#cp0)">
<path transform="matrix(1,0,0,-1,11.9118,35.8881)" d="M 0 0 C .203 0 .385 -.024 .543 -.076 C .701 -.127 .781 -.184 .781 -.25 L .779 -.354 L .803 -.625 C .803 -.75 .773 -.814 .715 -.82 C .689 -.822 .654 -.787 .613 -.715 C .539 -.578 .412 -.461 .234 -.361 C .06 -.262 -.115 -.213 -.281 -.213 C -.512 -.213 -.699 -.318 -.846 -.529 C -.99 -.738 -1.064 -1.01 -1.064 -1.342 C -1.064 -1.734 -.951 -2.068 -.727 -2.34 C -.502 -2.611 -.227 -2.748 .098 -2.748 C .359 -2.748 .615 -2.641 .867 -2.426 C .898 -2.397 .928 -2.385 .953 -2.383 C .99 -2.377 1.008 -2.395 1.008 -2.432 C 1.008 -2.482 .951 -2.561 .838 -2.66 C .545 -2.924 .195 -3.055 -.215 -3.055 C -.592 -3.055 -.906 -2.918 -1.16 -2.645 C -1.414 -2.369 -1.539 -2.031 -1.539 -1.627 C -1.539 -1.174 -1.391 -.791 -1.09 -.475 C -.789 -.158 -.426 0 0 0 " fill="#231f20"/>
</g>
<g id="Layer-1" data-name="Artifact">
<path transform="matrix(1,0,0,-1,16.8298,37.436899)" d="M 0 0 C -.365 -.033 -.646 -.115 -.846 -.248 C -1.045 -.381 -1.144 -.55 -1.144 -.757 C -1.144 -.92 -1.098 -1.047 -1.002 -1.143 C -.906 -1.236 -.779 -1.285 -.617 -1.285 C -.422 -1.285 -.256 -1.22 -.123 -1.09 C -.041 -1.007 0 -.877 0 -.697 Z M 0 .139 L 0 .575 C 0 .844 -.049 1.03 -.15 1.133 C -.289 1.273 -.473 1.344 -.703 1.344 C -1.014 1.344 -1.17 1.213 -1.17 .953 C -1.17 .875 -1.154 .787 -1.123 .687 C -1.109 .645 -1.102 .607 -1.1 .575 C -1.098 .534 -1.119 .512 -1.168 .512 C -1.277 .512 -1.379 .535 -1.469 .582 C -1.559 .629 -1.603 .682 -1.603 .739 C -1.603 .883 -1.522 1.039 -1.367 1.209 C -1.154 1.436 -.873 1.549 -.522 1.549 C -.201 1.549 .047 1.479 .225 1.336 C .4 1.193 .488 .994 .488 .734 L .488 -.648 C .488 -.867 .516 -1.023 .568 -1.117 C .621 -1.209 .709 -1.256 .834 -1.256 C .869 -1.256 .897 -1.254 .918 -1.25 C .961 -1.24 .988 -1.236 1.002 -1.236 C 1.043 -1.232 1.061 -1.25 1.059 -1.285 C 1.057 -1.326 1.002 -1.369 .893 -1.412 C .783 -1.455 .678 -1.477 .574 -1.477 C .381 -1.477 .205 -1.357 .051 -1.117 C -.291 -1.377 -.607 -1.506 -.897 -1.506 C -1.119 -1.506 -1.293 -1.447 -1.424 -1.328 C -1.555 -1.209 -1.619 -1.05 -1.619 -.85 C -1.619 -.58 -1.496 -.369 -1.25 -.22 C -1.004 -.07 -.586 .049 0 .139 " fill="#231f20"/>
</g>
<g id="Layer-1" data-name="Artifact">
<path transform="matrix(1,0,0,-1,21.2185,36.7533)" d="M 0 0 L 0 -1.106 L -.004 -1.242 L .047 -1.481 C .113 -1.635 .234 -1.762 .41 -1.867 C .584 -1.973 .766 -2.024 .95 -2.024 C 1.252 -2.024 1.489 -1.916 1.668 -1.697 C 1.848 -1.48 1.936 -1.187 1.936 -.822 C 1.936 -.445 1.816 -.111 1.58 .18 C 1.344 .473 1.072 .619 .767 .619 C .522 .619 .309 .527 .119 .344 C .041 .267 0 .152 0 0 M 0 .414 C .217 .586 .4 .705 .555 .77 C .709 .834 .877 .865 1.06 .865 C 1.424 .865 1.723 .734 1.954 .473 C 2.185 .211 2.301 -.127 2.301 -.539 C 2.301 -1.002 2.161 -1.395 1.883 -1.715 C 1.604 -2.033 1.262 -2.192 .856 -2.192 C .516 -2.192 .196 -2.078 -.1 -1.848 C -.138 -1.815 -.164 -1.801 -.184 -1.805 C -.217 -1.807 -.265 -1.871 -.328 -1.998 C -.396 -2.127 -.443 -2.189 -.479 -2.189 C -.521 -2.189 -.541 -2.158 -.541 -2.098 C -.541 -2.074 -.533 -2.024 -.518 -1.953 C -.498 -1.871 -.488 -1.74 -.488 -1.559 L -.488 1.959 C -.488 2.228 -.509 2.4 -.548 2.478 C -.568 2.517 -.604 2.551 -.647 2.586 C -.693 2.621 -.729 2.639 -.756 2.637 L -.979 2.619 L -1.006 2.625 C -1.027 2.635 -1.037 2.652 -1.037 2.676 C -1.035 2.719 -.996 2.748 -.921 2.767 C -.641 2.828 -.377 2.935 -.135 3.076 C -.104 3.094 -.078 3.103 -.061 3.103 C -.021 3.103 0 3.066 0 2.996 Z " fill="#231f20"/>
</g>
<g id="Layer-1" data-name="Artifact">
<path transform="matrix(1,0,0,-1,26.5046,34.4311)" d="M 0 0 C .058 0 .116 -.047 .175 -.143 L .259 -.277 C .282 -.31 .294 -.34 .294 -.365 C .296 -.42 .257 -.495 .173 -.594 C .091 -.689 .024 -.738 -.024 -.738 C -.071 -.738 -.134 -.691 -.211 -.596 C -.29 -.502 -.329 -.428 -.329 -.372 C -.329 -.318 -.286 -.242 -.2 -.146 C -.114 -.049 -.046 0 0 0 M .226 -3.848 C .226 -4.016 .244 -4.127 .28 -4.184 C .315 -4.24 .394 -4.277 .51 -4.293 L .672 -4.31 C .756 -4.322 .797 -4.352 .795 -4.4 C .793 -4.439 .761 -4.459 .7 -4.459 C .659 -4.459 .582 -4.452 .47 -4.441 C .405 -4.437 .323 -4.434 .222 -4.434 L -.004 -4.43 L -.263 -4.445 C -.31 -4.447 -.347 -4.45 -.373 -4.454 C -.433 -4.463 -.476 -4.467 -.5 -4.467 C -.564 -4.467 -.595 -4.445 -.595 -4.402 C -.595 -4.367 -.574 -4.342 -.532 -4.327 L -.466 -4.307 C -.39 -4.279 -.336 -4.236 -.308 -4.172 C -.278 -4.109 -.263 -4.006 -.263 -3.865 L -.263 -2.327 C -.263 -2.133 -.282 -2.006 -.32 -1.947 C -.356 -1.887 -.439 -1.857 -.561 -1.857 C -.652 -1.857 -.696 -1.84 -.694 -1.803 C -.69 -1.77 -.63 -1.734 -.513 -1.699 C -.38 -1.652 -.211 -1.577 -.007 -1.471 L .18 -1.383 C .209 -1.385 .226 -1.413 .226 -1.467 Z " fill="#231f20"/>
</g>
<g id="Layer-1" data-name="Artifact">
<path transform="matrix(1,0,0,-1,30.5993,36.4487)" d="M 0 0 C .315 .375 .644 .562 .982 .562 C 1.358 .562 1.655 .406 1.875 .099 C 2.024 -.113 2.101 -.437 2.101 -.871 L 2.101 -1.715 L 2.098 -1.822 L 2.107 -1.992 C 2.133 -2.145 2.232 -2.238 2.403 -2.264 L 2.553 -2.285 C 2.615 -2.293 2.649 -2.315 2.65 -2.353 C 2.652 -2.404 2.613 -2.43 2.534 -2.43 C 2.51 -2.43 2.463 -2.424 2.396 -2.416 C 2.319 -2.406 2.178 -2.399 1.967 -2.399 L 1.618 -2.41 L 1.485 -2.41 L 1.383 -2.416 L 1.334 -2.406 C 1.317 -2.395 1.31 -2.377 1.31 -2.351 C 1.31 -2.313 1.33 -2.291 1.373 -2.281 L 1.48 -2.252 C 1.573 -2.228 1.621 -2.144 1.621 -2 L 1.621 -.783 C 1.621 -.457 1.547 -.207 1.395 -.029 C 1.244 .149 1.03 .236 .754 .236 C .559 .236 .385 .18 .232 .064 C .08 -.053 .006 -.183 .006 -.332 L .006 -1.682 L .01 -1.787 L .012 -1.963 C .024 -2.162 .189 -2.269 .504 -2.289 C .582 -2.297 .621 -2.322 .621 -2.365 C .621 -2.408 .594 -2.43 .539 -2.43 C .5 -2.43 .439 -2.422 .358 -2.408 C .314 -2.401 .202 -2.399 .025 -2.399 C -.351 -2.399 -.574 -2.406 -.647 -2.416 C -.721 -2.424 -.768 -2.43 -.789 -2.43 C -.834 -2.43 -.854 -2.41 -.853 -2.371 C -.851 -2.342 -.828 -2.317 -.785 -2.301 C -.666 -2.26 -.586 -2.207 -.545 -2.145 C -.504 -2.086 -.482 -1.986 -.482 -1.851 L -.482 -.258 C -.482 -.092 -.504 .022 -.543 .082 C -.582 .142 -.658 .172 -.768 .172 L -.92 .168 C -.94 .168 -.959 .172 -.977 .183 C -.998 .192 -1.009 .209 -1.009 .233 C -1.009 .269 -.978 .291 -.916 .303 C -.76 .332 -.606 .379 -.461 .447 L -.273 .539 C -.201 .574 -.156 .599 -.137 .608 C -.104 .625 -.076 .635 -.053 .635 C -.01 .635 .01 .603 .004 .533 C .002 .496 0 .449 0 .399 Z " fill="#231f20"/>
</g>
<g id="Layer-1" data-name="Artifact">
<path transform="matrix(1,0,0,-1,36.0407,36.8997)" d="M 0 0 L 1.197 0 C 1.383 0 1.477 .037 1.477 .111 C 1.477 .295 1.396 .467 1.238 .625 C 1.08 .781 .906 .861 .721 .861 C .527 .861 .367 .784 .24 .629 C .109 .475 .031 .266 0 0 M -.021 -.193 L -.023 -.272 C -.023 -.673 .087 -1.014 .311 -1.287 C .533 -1.561 .809 -1.699 1.133 -1.699 C 1.391 -1.699 1.67 -1.584 1.973 -1.354 C 1.992 -1.34 2.009 -1.332 2.027 -1.33 C 2.059 -1.326 2.076 -1.346 2.076 -1.387 C 2.076 -1.457 1.994 -1.555 1.829 -1.686 C 1.521 -1.923 1.197 -2.043 .857 -2.043 C .473 -2.043 .15 -1.898 -.109 -1.605 C -.37 -1.315 -.5 -.953 -.5 -.523 C -.5 -.113 -.366 .245 -.098 .553 C .171 .859 .486 1.012 .846 1.012 C 1.24 1.012 1.554 .85 1.79 .521 C 1.846 .441 1.904 .334 1.963 .197 C 2.021 .06 2.051 -.033 2.051 -.088 C 2.051 -.166 1.974 -.205 1.82 -.205 L 1.559 -.201 L 1.318 -.193 Z " fill="#231f20"/>
</g>
<g id="Layer-1" data-name="Artifact">
<path transform="matrix(1,0,0,-1,41.3044,36.3138)" d="M 0 0 L 0 -1.777 C 0 -2.01 .033 -2.158 .1 -2.227 C .195 -2.328 .334 -2.379 .512 -2.379 C .654 -2.379 .775 -2.353 .875 -2.301 L 1.057 -2.215 L 1.078 -2.207 C 1.105 -2.207 1.121 -2.219 1.121 -2.246 C 1.121 -2.322 1.027 -2.404 .842 -2.494 C .654 -2.584 .482 -2.629 .322 -2.629 C -.221 -2.629 -.492 -2.346 -.492 -1.781 L -.492 0 L -.805 0 C -.867 0 -.896 .019 -.896 .055 C -.896 .086 -.867 .129 -.805 .182 C -.527 .414 -.316 .648 -.17 .881 C -.105 .986 -.061 1.037 -.033 1.037 C -.002 1.037 .016 1.008 .016 .945 L 0 .336 L .75 .336 C .854 .336 .934 .355 .99 .394 C 1.025 .42 1.053 .435 1.068 .436 C 1.096 .439 1.105 .428 1.104 .397 C 1.104 .385 1.094 .355 1.072 .307 L .99 .103 C .963 .035 .912 0 .834 0 Z " fill="#231f20"/>
</g>
<g id="Layer-1" data-name="Artifact">
<path transform="matrix(1,0,0,-1,45.7907,36.5306)" d="M 0 0 C .273 .428 .525 .644 .756 .644 C .83 .644 .926 .6 1.045 .512 C 1.164 .424 1.225 .353 1.23 .299 C 1.232 .264 1.195 .199 1.117 .103 C 1.039 .01 .984 -.039 .953 -.041 C .936 -.041 .883 -.014 .797 .045 C .695 .115 .6 .15 .508 .15 C .365 .15 .244 .1 .148 -.004 C .053 -.106 .004 -.236 .004 -.391 L .004 -1.65 C .004 -1.848 .031 -1.988 .082 -2.07 C .137 -2.154 .23 -2.203 .359 -2.215 L .543 -2.229 C .617 -2.231 .656 -2.256 .656 -2.297 C .656 -2.344 .623 -2.367 .557 -2.367 C .541 -2.367 .484 -2.361 .391 -2.35 C .346 -2.344 .279 -2.342 .193 -2.342 L -.062 -2.338 L -.217 -2.338 C -.4 -2.338 -.533 -2.344 -.609 -2.356 C -.672 -2.367 -.713 -2.373 -.738 -2.375 C -.801 -2.379 -.832 -2.355 -.832 -2.307 C -.832 -2.268 -.797 -2.242 -.725 -2.229 C -.623 -2.205 -.559 -2.16 -.527 -2.098 C -.498 -2.033 -.484 -1.897 -.484 -1.69 L -.484 -.174 C -.484 .098 -.615 .232 -.873 .232 L -.994 .228 C -1.049 .228 -1.074 .252 -1.074 .301 C -1.074 .328 -1.057 .35 -1.02 .365 C -1 .369 -.975 .373 -.943 .375 C -.723 .396 -.461 .5 -.158 .686 C -.129 .701 -.102 .711 -.078 .713 C -.023 .715 .002 .676 .002 .594 L 0 .525 Z " fill="#231f20"/>
</g>
<g id="Layer-1" data-name="Artifact">
<path transform="matrix(1,0,0,-1,51.0505,38.347)" d="M 0 0 L .529 1.459 C .586 1.617 .615 1.756 .615 1.875 C .615 1.988 .59 2.07 .537 2.121 C .484 2.172 .385 2.215 .236 2.25 C .18 2.262 .152 2.287 .152 2.326 C .152 2.367 .176 2.389 .223 2.387 C .254 2.385 .299 2.381 .363 2.377 C .416 2.371 .523 2.369 .682 2.369 C .857 2.369 .98 2.371 1.051 2.375 C 1.131 2.379 1.184 2.381 1.209 2.381 C 1.26 2.381 1.283 2.361 1.283 2.32 C 1.283 2.289 1.26 2.264 1.209 2.242 C 1.117 2.207 1.051 2.166 1.012 2.123 C .973 2.078 .932 1.998 .891 1.883 L -.359 -1.643 L -.395 -1.756 C -.412 -1.815 -.436 -1.852 -.461 -1.861 C -.486 -1.871 -.568 -1.875 -.707 -1.875 C -.867 -1.875 -.947 -1.859 -.947 -1.826 C -.947 -1.807 -.934 -1.783 -.906 -1.756 C -.742 -1.594 -.6 -1.4 -.477 -1.174 C -.352 -.947 -.291 -.766 -.291 -.629 C -.291 -.559 -.334 -.418 -.424 -.209 L -1.312 1.846 C -1.371 1.982 -1.424 2.076 -1.469 2.129 C -1.516 2.18 -1.58 2.217 -1.662 2.238 C -1.713 2.252 -1.738 2.275 -1.738 2.305 C -1.738 2.355 -1.705 2.381 -1.639 2.381 C -1.588 2.381 -1.525 2.379 -1.451 2.371 C -1.395 2.365 -1.277 2.361 -1.096 2.361 C -.875 2.361 -.721 2.365 -.631 2.371 C -.574 2.375 -.531 2.377 -.506 2.377 C -.441 2.381 -.41 2.357 -.41 2.31 C -.41 2.266 -.475 2.236 -.602 2.217 C -.742 2.197 -.812 2.139 -.812 2.041 C -.812 1.957 -.772 1.826 -.699 1.648 Z " fill="#231f20"/>
</g>
<g id="Layer-1" data-name="Artifact">
<path transform="matrix(1,0,0,-1,63.6931,37.436899)" d="M 0 0 C -.365 -.033 -.646 -.115 -.846 -.248 C -1.045 -.381 -1.145 -.55 -1.145 -.757 C -1.145 -.92 -1.098 -1.047 -1.002 -1.143 C -.908 -1.236 -.779 -1.285 -.617 -1.285 C -.422 -1.285 -.256 -1.22 -.123 -1.09 C -.041 -1.007 0 -.877 0 -.697 Z M 0 .139 L 0 .575 C 0 .844 -.051 1.03 -.152 1.133 C -.289 1.273 -.473 1.344 -.703 1.344 C -1.014 1.344 -1.17 1.213 -1.17 .953 C -1.17 .875 -1.154 .787 -1.123 .687 C -1.109 .645 -1.102 .607 -1.1 .575 C -1.098 .534 -1.119 .512 -1.168 .512 C -1.279 .512 -1.379 .535 -1.469 .582 C -1.559 .629 -1.603 .682 -1.603 .739 C -1.603 .883 -1.525 1.039 -1.367 1.209 C -1.154 1.436 -.873 1.549 -.523 1.549 C -.201 1.549 .047 1.479 .223 1.336 C .4 1.193 .488 .994 .488 .734 L .488 -.648 C .488 -.867 .516 -1.023 .566 -1.117 C .621 -1.209 .709 -1.256 .832 -1.256 C .869 -1.256 .897 -1.254 .918 -1.25 C .959 -1.24 .988 -1.236 1.002 -1.236 C 1.041 -1.232 1.061 -1.25 1.059 -1.285 C 1.057 -1.326 1 -1.369 .893 -1.412 C .783 -1.455 .678 -1.477 .574 -1.477 C .381 -1.477 .205 -1.357 .051 -1.117 C -.291 -1.377 -.607 -1.506 -.898 -1.506 C -1.119 -1.506 -1.295 -1.447 -1.424 -1.328 C -1.555 -1.209 -1.619 -1.05 -1.619 -.85 C -1.619 -.58 -1.496 -.369 -1.25 -.22 C -1.004 -.07 -.586 .049 0 .139 " fill="#231f20"/>
</g>
<g id="Layer-1" data-name="Artifact">
<path transform="matrix(1,0,0,-1,68.0876,36.5306)" d="M 0 0 C .275 .428 .527 .644 .758 .644 C .83 .644 .926 .6 1.045 .512 C 1.164 .424 1.227 .353 1.23 .299 C 1.232 .264 1.195 .199 1.119 .103 C 1.041 .01 .986 -.039 .953 -.041 C .936 -.041 .885 -.014 .797 .045 C .697 .115 .6 .15 .508 .15 C .365 .15 .246 .1 .148 -.004 C .053 -.106 .004 -.236 .004 -.391 L .004 -1.65 C .004 -1.848 .031 -1.988 .084 -2.07 C .137 -2.154 .229 -2.203 .361 -2.215 L .545 -2.229 C .619 -2.231 .656 -2.256 .656 -2.297 C .656 -2.344 .625 -2.367 .557 -2.367 C .541 -2.367 .486 -2.361 .391 -2.35 C .348 -2.344 .281 -2.342 .193 -2.342 L -.06 -2.338 L -.217 -2.338 C -.4 -2.338 -.531 -2.344 -.609 -2.356 C -.67 -2.367 -.713 -2.373 -.736 -2.375 C -.801 -2.379 -.832 -2.355 -.832 -2.307 C -.832 -2.268 -.797 -2.242 -.723 -2.229 C -.621 -2.205 -.557 -2.16 -.527 -2.098 C -.498 -2.033 -.482 -1.897 -.482 -1.69 L -.482 -.174 C -.482 .098 -.613 .232 -.871 .232 L -.992 .228 C -1.047 .228 -1.074 .252 -1.074 .301 C -1.074 .328 -1.057 .35 -1.021 .365 C -1 .369 -.973 .373 -.943 .375 C -.721 .396 -.459 .5 -.158 .686 C -.127 .701 -.102 .711 -.078 .713 C -.023 .715 .004 .676 .004 .594 L 0 .525 Z " fill="#231f20"/>
</g>
<g id="Layer-1" data-name="Artifact">
<path transform="matrix(1,0,0,-1,73.1228,35.8881)" d="M 0 0 C .203 0 .383 -.024 .541 -.076 C .7 -.127 .78 -.184 .78 -.25 L .777 -.354 L .801 -.625 C .801 -.75 .771 -.814 .715 -.82 C .687 -.822 .653 -.787 .612 -.715 C .537 -.578 .412 -.461 .232 -.361 C .057 -.262 -.115 -.213 -.283 -.213 C -.514 -.213 -.701 -.318 -.848 -.529 C -.992 -.738 -1.066 -1.01 -1.066 -1.342 C -1.066 -1.734 -.953 -2.068 -.729 -2.34 C -.504 -2.611 -.229 -2.748 .096 -2.748 C .357 -2.748 .614 -2.641 .866 -2.426 C .896 -2.397 .926 -2.385 .953 -2.383 C .988 -2.377 1.006 -2.395 1.006 -2.432 C 1.006 -2.482 .949 -2.561 .838 -2.66 C .545 -2.924 .193 -3.055 -.217 -3.055 C -.594 -3.055 -.908 -2.918 -1.162 -2.645 C -1.414 -2.369 -1.541 -2.031 -1.541 -1.627 C -1.541 -1.174 -1.392 -.791 -1.09 -.475 C -.791 -.158 -.427 0 0 0 " fill="#231f20"/>
</g>
<g id="Layer-1" data-name="Artifact">
<path transform="matrix(1,0,0,-1,77.3708,36.4487)" d="M 0 0 C .305 .375 .633 .562 .991 .562 C 1.322 .562 1.592 .447 1.797 .219 C 2.002 -.01 2.105 -.308 2.105 -.678 L 2.105 -1.797 C 2.105 -1.976 2.135 -2.1 2.192 -2.166 C 2.252 -2.229 2.377 -2.279 2.567 -2.31 C 2.631 -2.317 2.662 -2.344 2.662 -2.387 C 2.662 -2.428 2.631 -2.449 2.567 -2.449 C 2.538 -2.449 2.48 -2.445 2.393 -2.438 C 2.219 -2.426 2.067 -2.42 1.941 -2.42 C 1.734 -2.42 1.58 -2.426 1.482 -2.438 C 1.424 -2.445 1.389 -2.449 1.37 -2.449 C 1.307 -2.449 1.274 -2.428 1.272 -2.385 C 1.27 -2.356 1.293 -2.332 1.344 -2.313 C 1.465 -2.269 1.537 -2.228 1.566 -2.192 C 1.596 -2.156 1.609 -2.086 1.609 -1.978 L 1.612 -1.871 L 1.612 -.697 C 1.612 -.399 1.536 -.164 1.385 .012 C 1.232 .187 1.028 .274 .773 .274 C .577 .274 .398 .213 .239 .088 C .08 -.035 0 -.174 0 -.328 L 0 -1.697 C 0 -1.938 .027 -2.094 .081 -2.166 C .137 -2.236 .268 -2.285 .477 -2.313 C .555 -2.326 .596 -2.353 .596 -2.399 C .596 -2.438 .569 -2.457 .518 -2.457 C .491 -2.457 .426 -2.453 .322 -2.44 C .237 -2.433 .059 -2.43 -.215 -2.43 C -.31 -2.43 -.445 -2.435 -.621 -2.447 C -.699 -2.455 -.754 -2.457 -.785 -2.457 C -.842 -2.457 -.871 -2.438 -.873 -2.401 C -.875 -2.358 -.849 -2.33 -.791 -2.313 C -.652 -2.27 -.566 -2.225 -.535 -2.17 C -.504 -2.115 -.486 -1.988 -.486 -1.785 L -.486 1.887 C -.486 2.176 -.566 2.317 -.725 2.308 L -.904 2.297 C -.925 2.297 -.939 2.301 -.955 2.308 C -.972 2.317 -.978 2.332 -.978 2.356 C -.978 2.389 -.951 2.412 -.896 2.428 C -.748 2.463 -.582 2.524 -.4 2.611 L -.123 2.742 C -.096 2.756 -.07 2.764 -.05 2.764 C -.009 2.764 .012 2.738 .012 2.687 C .012 2.672 .01 2.646 .004 2.603 C .002 2.562 0 2.502 0 2.422 Z " fill="#231f20"/>
</g>
<g id="Layer-1" data-name="Artifact">
<path transform="matrix(1,0,0,-1,82.9899,34.4311)" d="M 0 0 C .057 0 .116 -.047 .174 -.143 L .26 -.277 C .283 -.31 .294 -.34 .294 -.365 C .296 -.42 .256 -.495 .173 -.594 C .091 -.689 .025 -.738 -.023 -.738 C -.072 -.738 -.134 -.691 -.212 -.596 C -.29 -.502 -.329 -.428 -.329 -.372 C -.329 -.318 -.286 -.242 -.2 -.146 C -.113 -.049 -.047 0 0 0 M .225 -3.848 C .225 -4.016 .243 -4.127 .28 -4.184 C .316 -4.24 .393 -4.277 .51 -4.293 L .672 -4.31 C .756 -4.322 .797 -4.352 .795 -4.4 C .793 -4.439 .762 -4.459 .7 -4.459 C .659 -4.459 .582 -4.452 .471 -4.441 C .406 -4.437 .324 -4.434 .223 -4.434 L -.005 -4.43 L -.264 -4.445 C -.311 -4.447 -.346 -4.45 -.373 -4.454 C -.434 -4.463 -.477 -4.467 -.5 -4.467 C -.564 -4.467 -.595 -4.445 -.595 -4.402 C -.595 -4.367 -.574 -4.342 -.531 -4.327 L -.465 -4.307 C -.389 -4.279 -.338 -4.236 -.307 -4.172 C -.277 -4.109 -.264 -4.006 -.264 -3.865 L -.264 -2.327 C -.264 -2.133 -.281 -2.006 -.32 -1.947 C -.357 -1.887 -.437 -1.857 -.562 -1.857 C -.652 -1.857 -.695 -1.84 -.693 -1.803 C -.691 -1.77 -.631 -1.734 -.512 -1.699 C -.381 -1.652 -.212 -1.577 -.008 -1.471 L .18 -1.383 C .209 -1.385 .225 -1.413 .225 -1.467 Z " fill="#231f20"/>
</g>
<g id="Layer-1" data-name="Artifact">
<path transform="matrix(1,0,0,-1,86.947,36.3138)" d="M 0 0 L 0 -1.777 C 0 -2.01 .033 -2.158 .098 -2.227 C .193 -2.328 .332 -2.379 .51 -2.379 C .654 -2.379 .773 -2.353 .873 -2.301 L 1.055 -2.215 L 1.078 -2.207 C 1.105 -2.207 1.119 -2.219 1.119 -2.246 C 1.119 -2.322 1.025 -2.404 .84 -2.494 C .654 -2.584 .48 -2.629 .32 -2.629 C -.223 -2.629 -.492 -2.346 -.492 -1.781 L -.492 0 L -.807 0 C -.867 0 -.897 .019 -.897 .055 C -.897 .086 -.867 .129 -.807 .182 C -.529 .414 -.316 .648 -.17 .881 C -.104 .986 -.061 1.037 -.035 1.037 C -.002 1.037 .014 1.008 .014 .945 L 0 .336 L .75 .336 C .853 .336 .932 .355 .988 .394 C 1.023 .42 1.051 .435 1.066 .436 C 1.094 .439 1.105 .428 1.104 .397 C 1.104 .385 1.092 .355 1.07 .307 L .988 .103 C .963 .035 .91 0 .834 0 Z " fill="#231f20"/>
</g>
<g id="Layer-1" data-name="Artifact">
<path transform="matrix(1,0,0,-1,90.8298,36.8997)" d="M 0 0 L 1.197 0 C 1.383 0 1.477 .037 1.477 .111 C 1.477 .295 1.396 .467 1.238 .625 C 1.078 .781 .906 .861 .721 .861 C .527 .861 .367 .784 .238 .629 C .109 .475 .031 .266 0 0 M -.022 -.193 L -.025 -.272 C -.025 -.673 .088 -1.014 .31 -1.287 C .533 -1.561 .809 -1.699 1.133 -1.699 C 1.391 -1.699 1.67 -1.584 1.973 -1.354 C 1.992 -1.34 2.01 -1.332 2.025 -1.33 C 2.059 -1.326 2.076 -1.346 2.076 -1.387 C 2.076 -1.457 1.994 -1.555 1.828 -1.686 C 1.521 -1.923 1.197 -2.043 .855 -2.043 C .473 -2.043 .15 -1.898 -.109 -1.605 C -.369 -1.315 -.5 -.953 -.5 -.523 C -.5 -.113 -.365 .245 -.098 .553 C .172 .859 .484 1.012 .846 1.012 C 1.24 1.012 1.553 .85 1.789 .521 C 1.846 .441 1.902 .334 1.963 .197 C 2.021 .06 2.051 -.033 2.051 -.088 C 2.051 -.166 1.975 -.205 1.82 -.205 L 1.559 -.201 L 1.318 -.193 Z " fill="#231f20"/>
</g>
<g id="Layer-1" data-name="Artifact">
<path transform="matrix(1,0,0,-1,96.7087,35.8881)" d="M 0 0 C .203 0 .383 -.024 .543 -.076 C .701 -.127 .781 -.184 .781 -.25 L .777 -.354 L .801 -.625 C .801 -.75 .773 -.814 .715 -.82 C .689 -.822 .654 -.787 .613 -.715 C .537 -.578 .41 -.461 .234 -.361 C .057 -.262 -.115 -.213 -.283 -.213 C -.514 -.213 -.701 -.318 -.846 -.529 C -.992 -.738 -1.063 -1.01 -1.063 -1.342 C -1.063 -1.734 -.951 -2.068 -.727 -2.34 C -.502 -2.611 -.227 -2.748 .098 -2.748 C .359 -2.748 .615 -2.641 .867 -2.426 C .898 -2.397 .926 -2.385 .953 -2.383 C .988 -2.377 1.006 -2.395 1.006 -2.432 C 1.006 -2.482 .949 -2.561 .838 -2.66 C .545 -2.924 .195 -3.055 -.215 -3.055 C -.594 -3.055 -.908 -2.918 -1.16 -2.645 C -1.414 -2.369 -1.541 -2.031 -1.541 -1.627 C -1.541 -1.174 -1.391 -.791 -1.09 -.475 C -.789 -.158 -.426 0 0 0 " fill="#231f20"/>
</g>
<g id="Layer-1" data-name="Artifact">
<path transform="matrix(1,0,0,-1,100.8767,36.3138)" d="M 0 0 L 0 -1.777 C 0 -2.01 .033 -2.158 .098 -2.227 C .195 -2.328 .332 -2.379 .51 -2.379 C .654 -2.379 .773 -2.353 .873 -2.301 L 1.057 -2.215 L 1.078 -2.207 C 1.105 -2.207 1.119 -2.219 1.119 -2.246 C 1.119 -2.322 1.025 -2.404 .84 -2.494 C .654 -2.584 .48 -2.629 .32 -2.629 C -.223 -2.629 -.492 -2.346 -.492 -1.781 L -.492 0 L -.807 0 C -.867 0 -.897 .019 -.897 .055 C -.897 .086 -.867 .129 -.807 .182 C -.529 .414 -.316 .648 -.17 .881 C -.104 .986 -.061 1.037 -.035 1.037 C -.002 1.037 .014 1.008 .014 .945 L 0 .336 L .75 .336 C .853 .336 .932 .355 .988 .394 C 1.023 .42 1.051 .435 1.066 .436 C 1.094 .439 1.105 .428 1.105 .397 C 1.105 .385 1.092 .355 1.07 .307 L .988 .103 C .963 .035 .91 0 .834 0 Z " fill="#231f20"/>
</g>
<g id="Layer-1" data-name="Artifact">
<path transform="matrix(1,0,0,-1,106.7321,38.413499)" d="M 0 0 C -.271 -.353 -.604 -.529 -.994 -.529 C -1.322 -.529 -1.58 -.428 -1.766 -.223 C -1.949 -.02 -2.041 .264 -2.041 .631 L -2.037 .863 L -2.037 2.033 C -2.037 2.154 -2.063 2.238 -2.111 2.285 C -2.162 2.332 -2.254 2.359 -2.388 2.365 C -2.447 2.371 -2.476 2.396 -2.473 2.439 C -2.471 2.479 -2.396 2.504 -2.254 2.51 L -1.984 2.522 C -1.926 2.527 -1.837 2.545 -1.72 2.572 C -1.686 2.584 -1.66 2.588 -1.642 2.588 C -1.578 2.588 -1.546 2.533 -1.546 2.422 L -1.546 2.369 L -1.566 .785 L -1.566 .672 L -1.51 .244 C -1.461 .094 -1.369 -.031 -1.234 -.131 C -1.102 -.229 -.955 -.279 -.798 -.279 C -.591 -.279 -.406 -.219 -.246 -.098 C -.085 .025 -.004 .164 -.004 .32 L -.004 2.012 C -.004 2.147 -.025 2.238 -.072 2.287 C -.119 2.338 -.205 2.361 -.33 2.361 C -.404 2.361 -.441 2.383 -.441 2.428 C -.441 2.48 -.398 2.508 -.314 2.51 L -.197 2.519 L .053 2.527 C .133 2.533 .225 2.553 .328 2.586 C .361 2.596 .391 2.603 .413 2.604 C .465 2.607 .488 2.565 .488 2.478 L .488 .182 C .488 .002 .508 -.119 .547 -.176 C .586 -.234 .665 -.262 .784 -.262 L .842 -.262 L .893 -.26 C .942 -.26 .971 -.277 .973 -.312 C .975 -.363 .906 -.391 .768 -.397 L .545 -.414 C .393 -.42 .293 -.43 .247 -.44 C .19 -.457 .147 -.465 .117 -.465 C .041 -.465 .004 -.353 .004 -.135 Z " fill="#231f20"/>
</g>
<g id="Layer-1" data-name="Artifact">
<path transform="matrix(1,0,0,-1,111.0427,36.5306)" d="M 0 0 C .273 .428 .525 .644 .756 .644 C .829 .644 .926 .6 1.045 .512 C 1.163 .424 1.225 .353 1.229 .299 C 1.232 .264 1.195 .199 1.117 .103 C 1.039 .01 .985 -.039 .951 -.041 C .934 -.041 .885 -.014 .797 .045 C .695 .115 .6 .15 .508 .15 C .364 .15 .244 .1 .148 -.004 C .053 -.106 .004 -.236 .004 -.391 L .004 -1.65 C .004 -1.848 .03 -1.988 .084 -2.07 C .137 -2.154 .228 -2.203 .359 -2.215 L .543 -2.229 C .618 -2.231 .655 -2.256 .655 -2.297 C .655 -2.344 .623 -2.367 .557 -2.367 C .541 -2.367 .484 -2.361 .391 -2.35 C .346 -2.344 .279 -2.342 .192 -2.342 L -.062 -2.338 L -.218 -2.338 C -.4 -2.338 -.531 -2.344 -.609 -2.356 C -.671 -2.367 -.714 -2.373 -.736 -2.375 C -.802 -2.379 -.832 -2.355 -.832 -2.307 C -.832 -2.268 -.797 -2.242 -.725 -2.229 C -.623 -2.205 -.559 -2.16 -.527 -2.098 C -.498 -2.033 -.484 -1.897 -.484 -1.69 L -.484 -.174 C -.484 .098 -.613 .232 -.873 .232 L -.994 .228 C -1.049 .228 -1.074 .252 -1.074 .301 C -1.074 .328 -1.058 .35 -1.022 .365 C -1 .369 -.975 .373 -.943 .375 C -.723 .396 -.461 .5 -.158 .686 C -.129 .701 -.102 .711 -.078 .713 C -.023 .715 .004 .676 .004 .594 L 0 .525 Z " fill="#231f20"/>
</g>
<g id="Layer-1" data-name="Artifact">
<path transform="matrix(1,0,0,-1,116.156,37.436899)" d="M 0 0 C -.365 -.033 -.647 -.115 -.846 -.248 C -1.045 -.381 -1.145 -.55 -1.145 -.757 C -1.145 -.92 -1.098 -1.047 -1.002 -1.143 C -.908 -1.236 -.779 -1.285 -.619 -1.285 C -.422 -1.285 -.258 -1.22 -.123 -1.09 C -.041 -1.007 0 -.877 0 -.697 Z M 0 .139 L 0 .575 C 0 .844 -.051 1.03 -.152 1.133 C -.289 1.273 -.473 1.344 -.703 1.344 C -1.016 1.344 -1.17 1.213 -1.17 .953 C -1.17 .875 -1.154 .787 -1.125 .687 C -1.109 .645 -1.102 .607 -1.1 .575 C -1.098 .534 -1.121 .512 -1.17 .512 C -1.279 .512 -1.379 .535 -1.471 .582 C -1.559 .629 -1.604 .682 -1.604 .739 C -1.604 .883 -1.525 1.039 -1.367 1.209 C -1.154 1.436 -.875 1.549 -.522 1.549 C -.203 1.549 .045 1.479 .223 1.336 C .398 1.193 .488 .994 .488 .734 L .488 -.648 C .488 -.867 .514 -1.023 .566 -1.117 C .619 -1.209 .707 -1.256 .832 -1.256 C .867 -1.256 .896 -1.254 .918 -1.25 C .959 -1.24 .986 -1.236 1.002 -1.236 C 1.041 -1.232 1.062 -1.25 1.061 -1.285 C 1.055 -1.326 1 -1.369 .891 -1.412 C .783 -1.455 .678 -1.477 .572 -1.477 C .379 -1.477 .205 -1.357 .049 -1.117 C -.291 -1.377 -.607 -1.506 -.897 -1.506 C -1.119 -1.506 -1.295 -1.447 -1.426 -1.328 C -1.555 -1.209 -1.621 -1.05 -1.621 -.85 C -1.621 -.58 -1.498 -.369 -1.25 -.22 C -1.004 -.07 -.588 .049 0 .139 " fill="#231f20"/>
</g>
<g id="Layer-1" data-name="Artifact">
<path transform="matrix(1,0,0,-1,120.4685,33.892)" d="M 0 0 L 0 -4.145 C 0 -4.336 .023 -4.483 .066 -4.588 C .119 -4.707 .266 -4.785 .506 -4.826 C .57 -4.838 .605 -4.861 .607 -4.897 C .609 -4.951 .586 -4.977 .533 -4.977 C .512 -4.977 .482 -4.973 .441 -4.963 C .406 -4.957 .355 -4.953 .283 -4.953 L -.025 -4.957 L -.209 -4.957 C -.434 -4.957 -.572 -4.961 -.623 -4.967 C -.699 -4.978 -.744 -4.986 -.758 -4.986 C -.818 -4.986 -.85 -4.963 -.854 -4.916 C -.854 -4.877 -.822 -4.848 -.756 -4.83 C -.65 -4.799 -.578 -4.758 -.541 -4.707 C -.506 -4.658 -.488 -4.576 -.488 -4.463 L -.488 -.545 C -.488 -.328 -.562 -.221 -.713 -.221 L -.889 -.228 C -.912 -.228 -.934 -.225 -.949 -.221 C -.979 -.209 -.992 -.188 -.992 -.164 C -.992 -.129 -.961 -.104 -.9 -.088 C -.82 -.068 -.746 -.047 -.68 -.021 L -.465 .066 C -.299 .133 -.184 .189 -.121 .236 C -.092 .256 -.068 .264 -.049 .264 C -.014 .269 .004 .215 .004 .109 Z " fill="#231f20"/>
</g>
<g id="Layer-1" data-name="Artifact">
<path transform="matrix(1,0,0,-1,128.4567,38.3256)" d="M 0 0 L .693 1.424 L .625 1.603 C .539 1.83 .469 1.98 .414 2.053 C .359 2.125 .277 2.176 .172 2.205 C .113 2.219 .084 2.242 .084 2.277 C .084 2.326 .121 2.353 .197 2.353 C .23 2.353 .277 2.348 .346 2.34 C .432 2.328 .557 2.324 .727 2.324 C .867 2.324 1.004 2.33 1.139 2.344 C 1.195 2.351 1.232 2.353 1.248 2.353 C 1.322 2.353 1.359 2.33 1.359 2.287 C 1.359 2.246 1.334 2.221 1.285 2.209 L 1.176 2.185 C 1.082 2.162 1.035 2.092 1.035 1.976 C 1.035 1.922 1.062 1.828 1.111 1.691 L 1.738 .031 L 2.107 .898 L 2.248 1.226 C 2.367 1.494 2.426 1.717 2.426 1.893 C 2.426 1.984 2.396 2.061 2.338 2.117 C 2.279 2.176 2.203 2.205 2.113 2.205 C 2.041 2.205 2.006 2.229 2.006 2.275 C 2.006 2.324 2.037 2.348 2.096 2.348 C 2.129 2.348 2.176 2.346 2.232 2.342 C 2.299 2.334 2.414 2.332 2.58 2.332 C 2.754 2.332 2.873 2.334 2.938 2.338 C 2.994 2.342 3.039 2.344 3.068 2.344 C 3.119 2.344 3.145 2.324 3.145 2.283 C 3.145 2.25 3.117 2.223 3.064 2.205 C 2.98 2.178 2.916 2.143 2.873 2.098 C 2.83 2.051 2.781 1.973 2.732 1.863 L 1.736 -.484 C 1.695 -.572 1.641 -.617 1.568 -.617 C 1.5 -.617 1.451 -.58 1.424 -.504 L .797 1.15 L -.012 -.529 C -.039 -.59 -.088 -.621 -.158 -.621 C -.219 -.621 -.26 -.596 -.277 -.545 L -1.117 1.617 L -1.18 1.787 C -1.256 1.979 -1.375 2.107 -1.539 2.176 C -1.596 2.199 -1.623 2.228 -1.623 2.262 C -1.623 2.31 -1.584 2.332 -1.506 2.332 C -1.484 2.332 -1.443 2.33 -1.383 2.324 C -1.309 2.318 -1.182 2.314 -.996 2.314 L -.623 2.324 L -.475 2.328 L -.393 2.31 C -.373 2.301 -.363 2.283 -.363 2.256 C -.365 2.223 -.389 2.199 -.43 2.189 L -.523 2.164 C -.633 2.135 -.687 2.064 -.687 1.951 C -.687 1.9 -.654 1.781 -.586 1.596 Z " fill="#231f20"/>
</g>
<g id="Layer-1" data-name="Artifact">
<path transform="matrix(1,0,0,-1,135.3122,36.026803)" d="M 0 0 C -.293 0 -.531 -.109 -.711 -.328 C -.889 -.545 -.98 -.832 -.98 -1.184 C -.98 -1.634 -.869 -2.011 -.641 -2.314 C -.42 -2.617 -.139 -2.77 .195 -2.77 C .486 -2.77 .715 -2.662 .883 -2.447 C 1.051 -2.232 1.135 -1.941 1.135 -1.574 C 1.135 -1.109 1.029 -.73 .82 -.437 C .609 -.146 .334 0 0 0 M .09 .139 C .514 .139 .877 -.009 1.182 -.307 C 1.486 -.605 1.637 -.959 1.637 -1.371 C 1.637 -1.818 1.486 -2.188 1.187 -2.478 C .889 -2.771 .512 -2.916 .055 -2.916 C -.391 -2.916 -.76 -2.775 -1.049 -2.492 C -1.336 -2.207 -1.48 -1.846 -1.48 -1.402 C -1.48 -.975 -1.328 -.611 -1.022 -.31 C -.717 -.011 -.346 .139 .09 .139 " fill="#231f20"/>
</g>
<g id="Layer-1" data-name="Artifact">
<path transform="matrix(1,0,0,-1,140.6599,36.026803)" d="M 0 0 C -.293 0 -.529 -.109 -.711 -.328 C -.889 -.545 -.98 -.832 -.98 -1.184 C -.98 -1.634 -.867 -2.011 -.643 -2.314 C -.418 -2.617 -.139 -2.77 .195 -2.77 C .486 -2.77 .717 -2.662 .885 -2.447 C 1.053 -2.232 1.137 -1.941 1.137 -1.574 C 1.137 -1.109 1.031 -.73 .818 -.437 C .607 -.146 .334 0 0 0 M .09 .139 C .514 .139 .879 -.009 1.182 -.307 C 1.486 -.605 1.637 -.959 1.637 -1.371 C 1.637 -1.818 1.486 -2.188 1.189 -2.478 C .889 -2.771 .512 -2.916 .055 -2.916 C -.391 -2.916 -.76 -2.775 -1.047 -2.492 C -1.336 -2.207 -1.48 -1.846 -1.48 -1.402 C -1.48 -.975 -1.328 -.611 -1.022 -.31 C -.715 -.011 -.346 .139 .09 .139 " fill="#231f20"/>
</g>
<g id="Layer-1" data-name="Artifact">
<path transform="matrix(1,0,0,-1,146.8708,37.9915)" d="M 0 0 L 0 1.164 C 0 1.375 -.051 1.531 -.154 1.629 C -.387 1.853 -.662 1.965 -.979 1.965 C -1.264 1.965 -1.492 1.857 -1.666 1.641 C -1.84 1.425 -1.928 1.139 -1.928 .785 C -1.928 .4 -1.814 .064 -1.586 -.219 C -1.357 -.502 -1.086 -.645 -.775 -.645 C -.547 -.645 -.359 -.584 -.217 -.465 C -.072 -.346 0 -.191 0 0 M 0 -.426 C -.24 -.633 -.434 -.773 -.582 -.844 C -.732 -.916 -.9 -.95 -1.088 -.95 C -1.443 -.95 -1.74 -.812 -1.98 -.535 C -2.223 -.258 -2.342 .086 -2.342 .496 C -2.342 .947 -2.199 1.328 -1.91 1.639 C -1.623 1.949 -1.27 2.103 -.852 2.103 C -.568 2.103 -.283 2.021 0 1.853 L 0 3.248 C 0 3.693 -.119 3.91 -.361 3.896 L -.484 3.889 C -.502 3.889 -.518 3.893 -.531 3.896 C -.555 3.906 -.568 3.925 -.57 3.951 C -.576 3.998 -.541 4.025 -.467 4.035 C -.223 4.066 .053 4.175 .363 4.359 C .391 4.377 .412 4.386 .432 4.386 C .467 4.386 .484 4.359 .484 4.307 L .488 4.244 L .488 -.248 C .488 -.514 .568 -.647 .73 -.647 L .939 -.641 L .971 -.645 C .996 -.652 1.01 -.672 1.01 -.698 C 1.01 -.748 .967 -.777 .883 -.787 C .785 -.797 .723 -.805 .697 -.809 L .5 -.84 C .344 -.863 .24 -.887 .189 -.912 C .143 -.94 .107 -.95 .08 -.95 C .027 -.953 0 -.895 0 -.775 Z " fill="#231f20"/>
</g>
<g id="Layer-1" data-name="Artifact">
<path transform="matrix(1,0,0,-1,151.7341,38.3256)" d="M 0 0 L .693 1.424 L .625 1.603 C .539 1.83 .471 1.98 .414 2.053 C .359 2.125 .277 2.176 .172 2.205 C .113 2.219 .084 2.242 .084 2.277 C .084 2.326 .121 2.353 .197 2.353 C .229 2.353 .277 2.348 .346 2.34 C .432 2.328 .557 2.324 .725 2.324 C .867 2.324 1.004 2.33 1.139 2.344 C 1.195 2.351 1.232 2.353 1.25 2.353 C 1.322 2.353 1.359 2.33 1.359 2.287 C 1.359 2.246 1.334 2.221 1.285 2.209 L 1.176 2.185 C 1.082 2.162 1.035 2.092 1.035 1.976 C 1.035 1.922 1.062 1.828 1.111 1.691 L 1.74 .031 L 2.109 .898 L 2.25 1.226 C 2.367 1.494 2.426 1.717 2.426 1.893 C 2.426 1.984 2.397 2.061 2.338 2.117 C 2.279 2.176 2.203 2.205 2.113 2.205 C 2.041 2.205 2.008 2.229 2.008 2.275 C 2.008 2.324 2.037 2.348 2.096 2.348 C 2.131 2.348 2.176 2.346 2.232 2.342 C 2.299 2.334 2.414 2.332 2.58 2.332 C 2.754 2.332 2.873 2.334 2.938 2.338 C 2.994 2.342 3.039 2.344 3.07 2.344 C 3.119 2.344 3.143 2.324 3.143 2.283 C 3.143 2.25 3.117 2.223 3.064 2.205 C 2.98 2.178 2.916 2.143 2.873 2.098 C 2.83 2.051 2.783 1.973 2.732 1.863 L 1.736 -.484 C 1.697 -.572 1.641 -.617 1.568 -.617 C 1.5 -.617 1.453 -.58 1.424 -.504 L .797 1.15 L -.012 -.529 C -.039 -.59 -.088 -.621 -.158 -.621 C -.219 -.621 -.26 -.596 -.277 -.545 L -1.117 1.617 L -1.18 1.787 C -1.254 1.979 -1.375 2.107 -1.539 2.176 C -1.596 2.199 -1.623 2.228 -1.623 2.262 C -1.623 2.31 -1.584 2.332 -1.506 2.332 C -1.484 2.332 -1.443 2.33 -1.383 2.324 C -1.309 2.318 -1.182 2.314 -.996 2.314 L -.621 2.324 L -.473 2.328 L -.393 2.31 C -.373 2.301 -.363 2.283 -.363 2.256 C -.365 2.223 -.389 2.199 -.43 2.189 L -.525 2.164 C -.633 2.135 -.687 2.064 -.687 1.951 C -.687 1.9 -.654 1.781 -.586 1.596 Z " fill="#231f20"/>
</g>
<g id="Layer-1" data-name="Artifact">
<path transform="matrix(1,0,0,-1,158.5876,36.026803)" d="M 0 0 C -.293 0 -.529 -.109 -.709 -.328 C -.887 -.545 -.979 -.832 -.979 -1.184 C -.979 -1.634 -.867 -2.011 -.643 -2.314 C -.418 -2.617 -.137 -2.77 .195 -2.77 C .488 -2.77 .717 -2.662 .885 -2.447 C 1.053 -2.232 1.137 -1.941 1.137 -1.574 C 1.137 -1.109 1.031 -.73 .818 -.437 C .607 -.146 .336 0 0 0 M .092 .139 C .514 .139 .879 -.009 1.182 -.307 C 1.488 -.605 1.637 -.959 1.637 -1.371 C 1.637 -1.818 1.488 -2.188 1.189 -2.478 C .891 -2.771 .512 -2.916 .057 -2.916 C -.391 -2.916 -.76 -2.775 -1.047 -2.492 C -1.336 -2.207 -1.48 -1.846 -1.48 -1.402 C -1.48 -.975 -1.326 -.611 -1.02 -.31 C -.715 -.011 -.344 .139 .092 .139 " fill="#231f20"/>
</g>
<g id="Layer-1" data-name="Artifact">
<path transform="matrix(1,0,0,-1,163.531,36.5306)" d="M 0 0 C .273 .428 .525 .644 .756 .644 C .83 .644 .926 .6 1.045 .512 C 1.164 .424 1.225 .353 1.23 .299 C 1.232 .264 1.195 .199 1.117 .103 C 1.039 .01 .984 -.039 .953 -.041 C .937 -.041 .883 -.014 .797 .045 C .695 .115 .6 .15 .508 .15 C .365 .15 .244 .1 .148 -.004 C .053 -.106 .004 -.236 .004 -.391 L .004 -1.65 C .004 -1.848 .031 -1.988 .082 -2.07 C .137 -2.154 .23 -2.203 .359 -2.215 L .543 -2.229 C .617 -2.231 .656 -2.256 .656 -2.297 C .656 -2.344 .623 -2.367 .557 -2.367 C .539 -2.367 .484 -2.361 .391 -2.35 C .346 -2.344 .279 -2.342 .193 -2.342 L -.062 -2.338 L -.217 -2.338 C -.4 -2.338 -.533 -2.344 -.611 -2.356 C -.672 -2.367 -.715 -2.373 -.738 -2.375 C -.801 -2.379 -.832 -2.355 -.832 -2.307 C -.832 -2.268 -.797 -2.242 -.725 -2.229 C -.623 -2.205 -.559 -2.16 -.529 -2.098 C -.498 -2.033 -.484 -1.897 -.484 -1.69 L -.484 -.174 C -.484 .098 -.615 .232 -.873 .232 L -.994 .228 C -1.049 .228 -1.074 .252 -1.074 .301 C -1.074 .328 -1.057 .35 -1.02 .365 C -1.002 .369 -.975 .373 -.943 .375 C -.723 .396 -.461 .5 -.16 .686 C -.129 .701 -.102 .711 -.078 .713 C -.021 .715 .002 .676 .002 .594 L 0 .525 Z " fill="#231f20"/>
</g>
<g id="Layer-1" data-name="Artifact">
<path transform="matrix(1,0,0,-1,168.0329,37.3647)" d="M 0 0 L 1.047 .91 C 1.135 .986 1.178 1.049 1.178 1.098 C 1.178 1.182 1.115 1.238 .992 1.264 C .902 1.283 .857 1.309 .857 1.342 C .857 1.387 .889 1.41 .947 1.408 C .982 1.404 1.043 1.398 1.129 1.391 C 1.193 1.383 1.301 1.379 1.451 1.379 C 1.666 1.379 1.816 1.383 1.904 1.389 C 1.988 1.394 2.049 1.396 2.088 1.396 C 2.133 1.396 2.156 1.379 2.158 1.344 C 2.16 1.303 2.111 1.272 2.014 1.248 C 1.83 1.207 1.691 1.15 1.592 1.078 L 1.332 .879 L 1.209 .787 L .574 .225 L .732 .021 C 1.221 -.611 1.545 -.996 1.703 -1.137 C 1.865 -1.275 2.076 -1.353 2.336 -1.369 C 2.395 -1.371 2.426 -1.391 2.426 -1.426 C 2.426 -1.478 2.385 -1.504 2.305 -1.504 L 2.023 -1.492 L 1.859 -1.496 C 1.713 -1.496 1.619 -1.498 1.582 -1.5 C 1.551 -1.504 1.527 -1.504 1.508 -1.504 C 1.451 -1.504 1.393 -1.473 1.33 -1.406 L .826 -.856 C .69 -.709 .482 -.455 .211 -.094 L 0 -.272 L 0 -.826 C 0 -1.022 .037 -1.162 .113 -1.244 C .186 -1.324 .316 -1.365 .492 -1.365 C .559 -1.365 .592 -1.385 .592 -1.426 C .592 -1.478 .561 -1.504 .496 -1.504 C .48 -1.504 .402 -1.494 .266 -1.475 C .23 -1.469 .166 -1.467 .074 -1.467 C -.234 -1.467 -.42 -1.471 -.482 -1.478 C -.664 -1.496 -.77 -1.504 -.797 -1.504 C -.842 -1.504 -.865 -1.484 -.865 -1.447 C -.865 -1.41 -.848 -1.387 -.814 -1.377 L -.695 -1.334 C -.564 -1.291 -.498 -1.193 -.498 -1.043 L -.49 -.859 L -.486 -.738 L -.486 2.76 C -.486 3.096 -.602 3.262 -.836 3.262 L -.963 3.266 C -1.016 3.266 -1.041 3.285 -1.041 3.322 C -1.041 3.358 -1.01 3.385 -.949 3.4 L -.785 3.443 C -.658 3.475 -.562 3.504 -.498 3.531 L -.242 3.629 C -.18 3.654 -.137 3.676 -.113 3.693 C -.082 3.711 -.059 3.721 -.041 3.721 C -.008 3.721 .008 3.69 .008 3.625 L .004 3.484 L 0 3.336 Z " fill="#231f20"/>
</g>
<g id="Layer-1" data-name="Artifact">
<path transform="matrix(1,0,0,-1,181.2126,35.8881)" d="M 0 0 C .189 0 .348 -.022 .482 -.072 L .637 -.125 C .699 -.147 .732 -.184 .732 -.232 L .732 -.289 C .732 -.322 .734 -.354 .738 -.389 L .754 -.527 C .76 -.576 .766 -.621 .766 -.662 C .766 -.754 .738 -.801 .686 -.803 C .656 -.807 .629 -.774 .605 -.711 C .475 -.352 .234 -.172 -.123 -.172 C -.264 -.172 -.379 -.213 -.471 -.293 C -.561 -.373 -.604 -.475 -.604 -.598 C -.604 -.727 -.557 -.832 -.459 -.912 C -.361 -.994 -.164 -1.092 .133 -1.207 C .426 -1.322 .631 -1.445 .746 -1.572 C .859 -1.701 .916 -1.873 .916 -2.09 C .916 -2.354 .818 -2.582 .621 -2.771 C .424 -2.961 .189 -3.055 -.084 -3.055 C -.279 -3.055 -.492 -3 -.721 -2.887 C -.773 -2.861 -.809 -2.848 -.822 -2.848 L -.914 -2.838 C -.969 -2.832 -.998 -2.805 -1.004 -2.75 L -1.006 -2.598 L -1.016 -2.147 L -1.008 -2.041 C -.998 -1.978 -.973 -1.945 -.93 -1.943 C -.887 -1.94 -.857 -1.977 -.844 -2.049 C -.793 -2.309 -.697 -2.512 -.557 -2.658 C -.414 -2.805 -.242 -2.879 -.043 -2.879 C .129 -2.879 .271 -2.828 .379 -2.727 C .488 -2.625 .543 -2.494 .543 -2.336 C .543 -2.096 .41 -1.916 .146 -1.797 L -.164 -1.66 C -.447 -1.537 -.647 -1.41 -.766 -1.281 C -.883 -1.149 -.941 -.99 -.941 -.803 C -.941 -.576 -.852 -.387 -.67 -.232 C -.488 -.076 -.266 0 0 0 " fill="#231f20"/>
</g>
<g id="Layer-1" data-name="Artifact">
<path transform="matrix(1,0,0,-1,185.2185,34.4311)" d="M 0 0 C .057 0 .115 -.047 .174 -.143 L .258 -.277 C .281 -.31 .293 -.34 .293 -.365 C .297 -.42 .256 -.495 .174 -.594 C .092 -.689 .023 -.738 -.025 -.738 C -.072 -.738 -.135 -.691 -.211 -.596 C -.291 -.502 -.33 -.428 -.33 -.372 C -.33 -.318 -.287 -.242 -.201 -.146 C -.113 -.049 -.047 0 0 0 M .225 -3.848 C .225 -4.016 .242 -4.127 .279 -4.184 C .314 -4.24 .393 -4.277 .51 -4.293 L .672 -4.31 C .756 -4.322 .797 -4.352 .795 -4.4 C .793 -4.439 .76 -4.459 .699 -4.459 C .658 -4.459 .582 -4.452 .469 -4.441 C .404 -4.437 .322 -4.434 .221 -4.434 L -.004 -4.43 L -.264 -4.445 C -.311 -4.447 -.348 -4.45 -.373 -4.454 C -.434 -4.463 -.477 -4.467 -.5 -4.467 C -.564 -4.467 -.596 -4.445 -.596 -4.402 C -.596 -4.367 -.574 -4.342 -.533 -4.327 L -.465 -4.307 C -.391 -4.279 -.336 -4.236 -.309 -4.172 C -.277 -4.109 -.264 -4.006 -.264 -3.865 L -.264 -2.327 C -.264 -2.133 -.283 -2.006 -.32 -1.947 C -.357 -1.887 -.439 -1.857 -.562 -1.857 C -.652 -1.857 -.697 -1.84 -.693 -1.803 C -.691 -1.77 -.631 -1.734 -.514 -1.699 C -.379 -1.652 -.211 -1.577 -.008 -1.471 L .18 -1.383 C .209 -1.385 .225 -1.413 .225 -1.467 Z " fill="#231f20"/>
</g>
<g id="Layer-1" data-name="Artifact">
<path transform="matrix(1,0,0,-1,189.4177,36.4487)" d="M 0 0 C .314 .375 .641 .562 .98 .562 C 1.357 .562 1.654 .406 1.873 .099 C 2.023 -.113 2.098 -.437 2.098 -.871 L 2.098 -1.715 L 2.096 -1.822 L 2.105 -1.992 C 2.131 -2.145 2.23 -2.238 2.402 -2.264 L 2.551 -2.285 C 2.613 -2.293 2.646 -2.315 2.648 -2.353 C 2.65 -2.404 2.613 -2.43 2.533 -2.43 C 2.506 -2.43 2.461 -2.424 2.396 -2.416 C 2.318 -2.406 2.176 -2.399 1.965 -2.399 L 1.617 -2.41 L 1.484 -2.41 L 1.381 -2.416 L 1.332 -2.406 C 1.316 -2.395 1.307 -2.377 1.307 -2.351 C 1.307 -2.313 1.328 -2.291 1.371 -2.281 L 1.478 -2.252 C 1.572 -2.228 1.619 -2.144 1.619 -2 L 1.619 -.783 C 1.619 -.457 1.545 -.207 1.395 -.029 C 1.242 .149 1.029 .236 .752 .236 C .557 .236 .383 .18 .23 .064 C .08 -.053 .004 -.183 .004 -.332 L .004 -1.682 L .008 -1.787 L .01 -1.963 C .023 -2.162 .187 -2.269 .502 -2.289 C .58 -2.297 .619 -2.322 .619 -2.365 C .619 -2.408 .59 -2.43 .537 -2.43 C .496 -2.43 .437 -2.422 .357 -2.408 C .312 -2.401 .201 -2.399 .023 -2.399 C -.352 -2.399 -.574 -2.406 -.648 -2.416 C -.723 -2.424 -.77 -2.43 -.791 -2.43 C -.836 -2.43 -.855 -2.41 -.854 -2.371 C -.852 -2.342 -.83 -2.317 -.787 -2.301 C -.668 -2.26 -.588 -2.207 -.547 -2.145 C -.506 -2.086 -.484 -1.986 -.484 -1.851 L -.484 -.258 C -.484 -.092 -.504 .022 -.545 .082 C -.584 .142 -.66 .172 -.77 .172 L -.922 .168 C -.943 .168 -.961 .172 -.979 .183 C -1 .192 -1.01 .209 -1.01 .233 C -1.01 .269 -.979 .291 -.918 .303 C -.762 .332 -.609 .379 -.463 .447 L -.275 .539 C -.203 .574 -.158 .599 -.139 .608 C -.105 .625 -.078 .635 -.055 .635 C -.012 .635 .008 .603 .002 .533 C 0 .496 0 .449 0 .399 Z " fill="#231f20"/>
</g>
<g id="Layer-1" data-name="Artifact">
<path transform="matrix(1,0,0,-1,196.0017,35.8881)" d="M 0 0 C .203 0 .383 -.024 .541 -.076 C .701 -.127 .781 -.184 .781 -.25 L .777 -.354 L .801 -.625 C .801 -.75 .772 -.814 .715 -.82 C .689 -.822 .654 -.787 .613 -.715 C .537 -.578 .412 -.461 .232 -.361 C .057 -.262 -.115 -.213 -.283 -.213 C -.514 -.213 -.701 -.318 -.846 -.529 C -.992 -.738 -1.062 -1.01 -1.062 -1.342 C -1.062 -1.734 -.953 -2.068 -.728 -2.34 C -.504 -2.611 -.228 -2.748 .098 -2.748 C .357 -2.748 .615 -2.641 .867 -2.426 C .898 -2.397 .926 -2.385 .953 -2.383 C .988 -2.377 1.006 -2.395 1.006 -2.432 C 1.006 -2.482 .949 -2.561 .838 -2.66 C .545 -2.924 .193 -3.055 -.217 -3.055 C -.594 -3.055 -.908 -2.918 -1.162 -2.645 C -1.414 -2.369 -1.541 -2.031 -1.541 -1.627 C -1.541 -1.174 -1.391 -.791 -1.09 -.475 C -.791 -.158 -.426 0 0 0 " fill="#231f20"/>
</g>
<g id="Layer-1" data-name="Artifact">
<path transform="matrix(1,0,0,-1,199.906,36.8997)" d="M 0 0 L 1.195 0 C 1.381 0 1.475 .037 1.475 .111 C 1.475 .295 1.395 .467 1.234 .625 C 1.076 .781 .904 .861 .719 .861 C .523 .861 .365 .784 .236 .629 C .107 .475 .027 .266 0 0 M -.023 -.193 L -.027 -.272 C -.027 -.673 .084 -1.014 .307 -1.287 C .531 -1.561 .805 -1.699 1.131 -1.699 C 1.387 -1.699 1.668 -1.584 1.971 -1.354 C 1.988 -1.34 2.008 -1.332 2.023 -1.33 C 2.057 -1.326 2.072 -1.346 2.072 -1.387 C 2.072 -1.457 1.99 -1.555 1.826 -1.686 C 1.52 -1.923 1.195 -2.043 .854 -2.043 C .471 -2.043 .148 -1.898 -.113 -1.605 C -.373 -1.315 -.504 -.953 -.504 -.523 C -.504 -.113 -.369 .245 -.1 .553 C .168 .859 .482 1.012 .844 1.012 C 1.236 1.012 1.551 .85 1.787 .521 C 1.844 .441 1.9 .334 1.959 .197 C 2.018 .06 2.049 -.033 2.049 -.088 C 2.049 -.166 1.971 -.205 1.818 -.205 L 1.557 -.201 L 1.314 -.193 Z " fill="#231f20"/>
</g>
<g id="Layer-1" data-name="Artifact">
<path transform="matrix(1,0,0,-1,210.1423,34.603)" d="M 0 0 L 0 -3.455 C 0 -3.705 .041 -3.873 .125 -3.961 C .207 -4.051 .365 -4.094 .598 -4.094 L .658 -4.094 C .695 -4.094 .727 -4.098 .75 -4.107 C .781 -4.119 .797 -4.141 .797 -4.174 C .797 -4.219 .748 -4.242 .654 -4.242 L .475 -4.236 L -.305 -4.227 C -.531 -4.227 -.701 -4.233 -.816 -4.244 C -.934 -4.254 -1.027 -4.258 -1.1 -4.258 C -1.164 -4.258 -1.197 -4.238 -1.197 -4.199 C -1.197 -4.149 -1.16 -4.121 -1.088 -4.115 L -.891 -4.102 C -.641 -4.084 -.516 -3.938 -.516 -3.66 L -.516 -.361 C -.516 -.213 -.537 -.113 -.58 -.06 C -.621 -.006 -.703 .021 -.822 .021 C -.945 .021 -1.051 -.004 -1.141 -.049 C -1.186 -.072 -1.217 -.082 -1.234 -.082 C -1.275 -.082 -1.293 -.063 -1.291 -.031 C -1.287 .062 -1.154 .146 -.898 .221 C -.613 .308 -.35 .449 -.107 .652 C -.059 .693 -.025 .713 -.01 .713 C .035 .713 .057 .689 .057 .635 C .057 .603 .049 .551 .033 .483 C .01 .389 0 .229 0 0 " fill="#231f20"/>
</g>
<g id="Layer-1" data-name="Artifact">
<path transform="matrix(1,0,0,-1,214.8044,34.151803)" d="M 0 0 C -.25 0 -.455 -.103 -.615 -.307 C -.775 -.512 -.855 -.773 -.855 -1.092 C -.855 -1.531 -.744 -1.904 -.523 -2.209 C -.303 -2.514 -.037 -2.665 .277 -2.665 C .544 -2.665 .753 -2.572 .907 -2.383 C 1.06 -2.193 1.136 -1.935 1.136 -1.605 C 1.136 -1.16 1.024 -.781 .804 -.469 C .581 -.156 .312 0 0 0 M 1.05 -2.516 C .981 -2.564 .929 -2.603 .894 -2.629 C .599 -2.853 .305 -2.967 .01 -2.967 C -.355 -2.967 -.666 -2.822 -.92 -2.533 C -1.174 -2.246 -1.301 -1.896 -1.301 -1.484 C -1.301 -1 -1.164 -.596 -.885 -.27 C -.609 .055 -.266 .217 .146 .217 C .591 .217 .962 .033 1.259 -.334 C 1.558 -.701 1.706 -1.158 1.706 -1.706 C 1.706 -2.127 1.614 -2.543 1.429 -2.956 C 1.243 -3.371 .985 -3.738 .655 -4.059 C .393 -4.31 .121 -4.512 -.164 -4.658 C -.449 -4.807 -.703 -4.881 -.926 -4.881 C -1.004 -4.881 -1.043 -4.855 -1.043 -4.803 C -1.043 -4.758 -1.004 -4.728 -.924 -4.709 L -.758 -4.663 C -.547 -4.611 -.324 -4.496 -.09 -4.316 C .146 -4.137 .35 -3.93 .519 -3.695 C .759 -3.365 .936 -2.971 1.05 -2.516 " fill="#231f20"/>
</g>
<g id="Layer-1" data-name="Artifact">
<path transform="matrix(1,0,0,-1,221.2917,34.5424)" d="M 0 0 L -1.227 0 C -1.492 0 -1.682 -.037 -1.799 -.111 C -1.916 -.186 -1.996 -.315 -2.037 -.506 C -2.057 -.584 -2.086 -.623 -2.123 -.623 C -2.188 -.623 -2.219 -.574 -2.219 -.475 C -2.219 -.399 -2.211 -.324 -2.193 -.248 L -2.121 .098 L -2.059 .418 C -2.039 .5 -1.996 .541 -1.932 .541 C -1.883 .541 -1.828 .537 -1.77 .529 C -1.697 .52 -1.582 .514 -1.424 .514 L -.189 .514 L -.01 .519 L .131 .522 C .209 .522 .262 .508 .287 .48 C .316 .453 .328 .402 .328 .326 C .328 .014 .158 -.58 -.184 -1.457 C -.592 -2.496 -.795 -3.303 -.795 -3.875 C -.795 -4.065 -.758 -4.238 -.682 -4.395 C -.656 -4.449 -.643 -4.486 -.643 -4.508 C -.643 -4.547 -.697 -4.588 -.803 -4.627 C -.908 -4.668 -1.014 -4.687 -1.121 -4.687 C -1.215 -4.687 -1.281 -4.641 -1.318 -4.549 C -1.355 -4.455 -1.373 -4.297 -1.373 -4.072 C -1.373 -3.785 -1.318 -3.478 -1.207 -3.149 C -1.096 -2.824 -.865 -2.295 -.52 -1.561 C -.172 -.824 0 -.303 0 0 " fill="#231f20"/>
</g>
<g id="Layer-1" data-name="Artifact">
<path transform="matrix(1,0,0,-1,225.612,36.0756)" d="M 0 0 C -.262 0 -.471 -.093 -.623 -.279 C -.775 -.465 -.853 -.715 -.853 -1.029 C -.853 -1.468 -.742 -1.852 -.52 -2.176 C -.297 -2.5 -.035 -2.662 .268 -2.662 C .525 -2.662 .736 -2.563 .895 -2.363 C 1.057 -2.162 1.135 -1.9 1.135 -1.576 C 1.135 -1.136 1.023 -.764 .803 -.459 C .584 -.152 .316 0 0 0 M -.797 -.193 C -.432 .135 -.082 .299 .256 .299 C .627 .299 .94 .155 1.195 -.135 C 1.451 -.424 1.578 -.779 1.578 -1.201 C 1.578 -1.668 1.443 -2.061 1.172 -2.385 C .9 -2.707 .57 -2.867 .178 -2.867 C -.291 -2.867 -.676 -2.684 -.977 -2.314 C -1.275 -1.947 -1.428 -1.477 -1.428 -.904 C -1.428 -.478 -1.322 -.047 -1.109 .393 C -.9 .832 -.609 1.215 -.246 1.545 C -.049 1.723 .193 1.879 .477 2.018 C .76 2.159 .984 2.227 1.148 2.227 C 1.225 2.227 1.26 2.201 1.262 2.15 C 1.266 2.109 1.229 2.078 1.156 2.059 C .633 1.902 .205 1.621 -.129 1.217 C -.482 .787 -.705 .316 -.797 -.193 " fill="#231f20"/>
</g>
<g id="Layer-1" data-name="Artifact">
<path transform="matrix(1,0,0,-1,57.9118,37.2201)" d="M 0 0 C 0 -.393 -.316 -.709 -.707 -.709 C -1.099 -.709 -1.416 -.393 -1.416 0 C -1.416 .389 -1.099 .707 -.707 .707 C -.316 .707 0 .389 0 0 " fill="#231f20"/>
</g>
<g id="Layer-1" data-name="Artifact">
<path transform="matrix(1,0,0,-1,176.0368,37.2201)" d="M 0 0 C 0 -.393 -.316 -.709 -.707 -.709 C -1.1 -.709 -1.416 -.393 -1.416 0 C -1.416 .389 -1.1 .707 -.707 .707 C -.316 .707 0 .389 0 0 " fill="#231f20"/>
</g>
<g id="Layer-1" data-name="Artifact">
<path transform="matrix(1,0,0,-1,18.5232,15.4897)" d="M 0 0 L .346 -2.535 L .377 -2.801 L .346 -2.906 C .312 -2.969 .256 -3.004 .187 -3.012 C .103 -3.017 -.024 -2.871 -.197 -2.568 C -1.514 -.26 -3.299 .894 -5.553 .894 C -7.35 .894 -8.766 .342 -9.799 -.762 C -10.836 -1.867 -11.354 -3.373 -11.354 -5.287 C -11.354 -7.486 -10.777 -9.283 -9.623 -10.68 C -8.471 -12.076 -6.99 -12.772 -5.178 -12.772 C -4.121 -12.772 -3.08 -12.492 -2.061 -11.928 C -1.037 -11.363 -.328 -10.68 .066 -9.877 C .248 -9.502 .389 -9.313 .488 -9.307 C .601 -9.299 .656 -9.365 .656 -9.508 L .646 -9.625 L .603 -9.856 L .355 -11.154 L .313 -11.346 C .285 -11.527 .119 -11.719 -.184 -11.914 C -1.809 -12.947 -3.6 -13.463 -5.555 -13.463 C -7.818 -13.463 -9.645 -12.789 -11.029 -11.445 C -12.416 -10.102 -13.106 -8.332 -13.106 -6.137 C -13.106 -3.941 -12.391 -2.117 -10.955 -.664 C -9.52 .791 -7.721 1.519 -5.555 1.519 C -4.07 1.519 -2.705 1.182 -1.459 .512 L -1.039 .289 L -.869 .215 L -.688 .152 C -.654 .152 -.602 .18 -.531 .236 C -.379 .346 -.274 .4 -.219 .4 C -.106 .4 -.035 .269 0 0 " fill="#231f20"/>
</g>
<g id="Layer-1" data-name="Artifact">
<path transform="matrix(1,0,0,-1,28.7321,23.6234)" d="M 0 0 L -1.158 2.927 L -1.218 3.082 C -1.275 3.239 -1.34 3.321 -1.41 3.325 C -1.443 3.332 -1.483 3.284 -1.526 3.185 L -2.967 -.015 C -3.031 -.153 -3.063 -.245 -3.063 -.288 C -3.063 -.416 -2.951 -.481 -2.725 -.481 L -2.523 -.489 L -.295 -.489 C -.049 -.489 .076 -.427 .076 -.304 C .076 -.269 .062 -.212 .037 -.134 Z M -.088 -1.187 L -2.761 -1.187 C -3.125 -1.187 -3.352 -1.216 -3.44 -1.274 C -3.528 -1.334 -3.647 -1.532 -3.795 -1.868 L -4.275 -2.959 C -4.494 -3.459 -4.603 -3.831 -4.603 -4.073 C -4.603 -4.306 -4.543 -4.474 -4.429 -4.577 C -4.312 -4.681 -4.082 -4.771 -3.74 -4.845 C -3.594 -4.874 -3.517 -4.931 -3.512 -5.017 C -3.506 -5.099 -3.576 -5.14 -3.719 -5.14 C -3.773 -5.14 -3.857 -5.138 -3.97 -5.132 L -4.681 -5.091 C -4.918 -5.079 -5.191 -5.073 -5.502 -5.073 C -5.645 -5.073 -5.754 -5.077 -5.834 -5.082 C -6.086 -5.11 -6.224 -5.124 -6.248 -5.124 C -6.381 -5.124 -6.447 -5.077 -6.447 -4.987 C -6.447 -4.907 -6.406 -4.853 -6.322 -4.827 L -6.049 -4.747 C -5.949 -4.718 -5.816 -4.599 -5.648 -4.388 C -5.48 -4.179 -5.343 -3.959 -5.233 -3.733 L -5.021 -3.245 L -1.223 5.196 C -1.158 5.345 -1.088 5.418 -1.011 5.418 C -.933 5.418 -.865 5.347 -.812 5.202 L 2.363 -2.938 L 2.525 -3.337 C 2.758 -3.935 2.951 -4.306 3.104 -4.45 C 3.256 -4.597 3.566 -4.712 4.035 -4.796 C 4.187 -4.825 4.263 -4.884 4.258 -4.976 C 4.252 -5.058 4.183 -5.099 4.051 -5.099 C 4.004 -5.099 3.912 -5.095 3.77 -5.084 C 3.512 -5.062 3.056 -5.05 2.398 -5.05 C 1.713 -5.05 1.283 -5.063 1.11 -5.095 C 1.006 -5.114 .932 -5.124 .881 -5.124 C .752 -5.124 .688 -5.073 .688 -4.972 C .688 -4.896 .75 -4.845 .875 -4.819 L 1.104 -4.769 C 1.352 -4.718 1.477 -4.55 1.477 -4.263 C 1.477 -4 1.326 -3.48 1.026 -2.698 L .657 -1.72 C .555 -1.448 .474 -1.29 .414 -1.249 C .355 -1.206 .187 -1.187 -.088 -1.187 " fill="#231f20"/>
</g>
<g id="Layer-1" data-name="Artifact">
<path transform="matrix(1,0,0,-1,45.6911,21.2318)" d="M 0 0 C -.422 -.733 -.699 -1.242 -.84 -1.526 L -1.498 -2.938 L -2.256 -4.488 C -2.295 -4.576 -2.504 -5.039 -2.879 -5.875 C -3.033 -6.219 -3.166 -6.502 -3.279 -6.725 C -3.344 -6.856 -3.389 -6.949 -3.414 -7.004 C -3.51 -7.236 -3.617 -7.352 -3.728 -7.352 C -3.846 -7.352 -3.957 -7.229 -4.066 -6.99 C -4.084 -6.945 -4.154 -6.809 -4.273 -6.584 L -4.42 -6.272 L -7.199 -.279 L -7.369 -3.938 C -7.385 -4.242 -7.393 -4.842 -7.393 -5.744 C -7.393 -6.613 -7.086 -7.094 -6.473 -7.187 C -6.172 -7.236 -6.021 -7.309 -6.021 -7.404 C -6.021 -7.516 -6.094 -7.572 -6.236 -7.572 C -6.33 -7.572 -6.42 -7.565 -6.51 -7.557 C -7.06 -7.508 -7.486 -7.481 -7.787 -7.481 C -8.144 -7.481 -8.49 -7.504 -8.82 -7.549 C -8.918 -7.563 -8.994 -7.572 -9.049 -7.572 C -9.197 -7.572 -9.269 -7.52 -9.269 -7.412 C -9.269 -7.33 -9.211 -7.276 -9.094 -7.252 C -8.732 -7.168 -8.482 -7 -8.34 -6.75 C -8.197 -6.498 -8.111 -6.067 -8.08 -5.461 L -7.978 -3.313 C -7.904 -1.762 -7.867 -.779 -7.867 -.369 C -7.867 .51 -7.984 1.158 -8.215 1.58 C -8.447 2.002 -8.834 2.264 -9.377 2.361 C -9.525 2.387 -9.598 2.447 -9.598 2.545 C -9.598 2.652 -9.537 2.707 -9.414 2.707 C -9.369 2.707 -9.287 2.701 -9.17 2.689 C -9.1 2.68 -8.934 2.674 -8.666 2.674 C -8.262 2.674 -8.006 2.68 -7.896 2.689 C -7.783 2.707 -7.691 2.715 -7.623 2.715 C -7.41 2.715 -7.232 2.56 -7.09 2.248 L -7.008 2.078 L -3.926 -4.567 L -3.547 -5.33 C -3.494 -5.457 -3.455 -5.521 -3.43 -5.521 C -3.4 -5.521 -3.363 -5.475 -3.318 -5.381 L -3.23 -5.182 L -3.164 -5.033 L .311 2.404 C .383 2.563 .44 2.66 .477 2.697 C .514 2.736 .578 2.756 .674 2.756 C .711 2.756 .82 2.744 .998 2.724 C 1.063 2.717 1.143 2.715 1.242 2.715 C 1.553 2.715 1.803 2.726 1.99 2.742 C 2.08 2.746 2.152 2.75 2.205 2.756 C 2.305 2.76 2.354 2.711 2.354 2.609 C 2.354 2.519 2.305 2.459 2.205 2.437 L 1.887 2.354 C 1.635 2.295 1.459 2.142 1.357 1.892 C 1.256 1.644 1.205 1.234 1.205 .668 L 1.25 -1.115 L 1.389 -5.131 L 1.426 -6.062 C 1.426 -6.437 1.496 -6.707 1.633 -6.869 C 1.772 -7.033 2.023 -7.141 2.389 -7.195 C 2.648 -7.233 2.779 -7.301 2.779 -7.393 C 2.779 -7.49 2.69 -7.539 2.508 -7.539 C 2.453 -7.539 2.391 -7.537 2.322 -7.531 L 1.746 -7.471 C 1.553 -7.451 1.348 -7.44 1.127 -7.44 C .973 -7.44 .732 -7.451 .402 -7.475 C -.109 -7.502 -.404 -7.516 -.484 -7.516 C -.627 -7.516 -.697 -7.471 -.697 -7.385 C -.697 -7.309 -.637 -7.252 -.512 -7.219 C -.221 -7.141 -.027 -7.012 .072 -6.836 C .172 -6.658 .221 -6.348 .221 -5.901 L .191 -4.697 Z " fill="#231f20"/>
</g>
<g id="Layer-1" data-name="Artifact">
<path transform="matrix(1,0,0,-1,54.0114,19.747502)" d="M 0 0 L 0 -6.17 L -.006 -6.887 L .016 -7.51 C .068 -8.104 .291 -8.453 .682 -8.551 C .953 -8.627 1.158 -8.662 1.297 -8.662 C 1.443 -8.662 1.522 -8.707 1.525 -8.793 C 1.537 -8.92 1.449 -8.981 1.268 -8.981 C 1.184 -8.981 1.018 -8.973 .77 -8.955 C .613 -8.945 .355 -8.938 0 -8.938 L -.527 -8.926 L -1.103 -8.934 C -1.395 -8.934 -1.615 -8.941 -1.764 -8.963 C -1.957 -8.986 -2.098 -9 -2.185 -9 C -2.314 -9 -2.379 -8.951 -2.379 -8.853 C -2.379 -8.762 -2.297 -8.703 -2.133 -8.68 C -1.748 -8.621 -1.484 -8.404 -1.344 -8.029 C -1.203 -7.654 -1.131 -6.979 -1.131 -6.006 L -1.131 -1.52 C -1.131 -.486 -1.193 .168 -1.316 .441 C -1.439 .713 -1.748 .877 -2.244 .932 C -2.377 .943 -2.441 .994 -2.435 1.086 C -2.432 1.203 -2.336 1.264 -2.148 1.264 C -2.055 1.264 -1.928 1.25 -1.77 1.225 C -1.459 1.18 -1.203 1.156 -1.002 1.156 C -.687 1.156 -.227 1.182 .373 1.234 C .684 1.26 .938 1.272 1.135 1.272 C 2.166 1.272 3.002 1.023 3.647 .527 C 4.289 .033 4.611 -.613 4.611 -1.412 C 4.611 -2.377 4.217 -3.139 3.43 -3.695 C 2.838 -4.109 2.213 -4.313 1.555 -4.313 C 1.244 -4.313 .961 -4.281 .701 -4.213 C .443 -4.145 .318 -4.072 .328 -3.994 C .338 -3.934 .385 -3.904 .469 -3.904 C .508 -3.904 .557 -3.912 .615 -3.928 C .729 -3.963 .91 -3.978 1.16 -3.978 C 1.867 -3.978 2.434 -3.783 2.857 -3.395 C 3.283 -3.004 3.494 -2.486 3.494 -1.838 C 3.494 -1.094 3.215 -.477 2.654 .014 C 2.094 .502 1.383 .746 .523 .746 C .328 .746 .191 .709 .119 .635 C .045 .562 .008 .42 .008 .213 Z " fill="#231f20"/>
</g>
<g id="Layer-1" data-name="Artifact">
<path transform="matrix(1,0,0,-1,64.8532,22.9799)" d="M 0 0 L 1.22 0 C 2.455 0 3.074 .559 3.074 1.674 C 3.074 2.359 2.811 2.938 2.283 3.406 C 1.756 3.875 1.105 4.109 .332 4.109 C -.008 4.109 -.232 4.062 -.34 3.965 C -.446 3.869 -.502 3.668 -.502 3.361 L -.502 .393 C -.502 .221 -.475 .111 -.418 .066 C -.361 .022 -.221 0 0 0 M -.096 -.518 C -.273 -.518 -.385 -.532 -.434 -.564 C -.479 -.598 -.502 -.674 -.502 -.797 L -.502 -4.211 L -.518 -4.551 L -.473 -4.84 C -.404 -5.051 -.227 -5.203 .064 -5.293 C .352 -5.385 .797 -5.43 1.398 -5.43 C 2.172 -5.43 2.773 -5.227 3.203 -4.819 C 3.631 -4.414 3.846 -3.848 3.846 -3.116 C 3.846 -2.369 3.609 -1.748 3.139 -1.256 C 2.668 -.764 2.076 -.518 1.361 -.518 Z M -1.635 -3.465 L -1.635 2.254 C -1.635 2.906 -1.73 3.388 -1.924 3.695 C -2.116 4.004 -2.416 4.158 -2.822 4.158 C -3.025 4.158 -3.127 4.213 -3.127 4.32 C -3.127 4.432 -3.029 4.486 -2.832 4.486 C -2.793 4.486 -2.666 4.482 -2.455 4.471 C -2.307 4.459 -2.102 4.455 -1.84 4.455 C -1.477 4.455 -1.195 4.459 -.998 4.47 L -.17 4.522 C .093 4.537 .338 4.545 .57 4.545 C 1.658 4.545 2.516 4.326 3.141 3.893 C 3.764 3.457 4.074 2.859 4.074 2.1 C 4.074 1.314 3.75 .703 3.102 .27 L 2.783 .047 C 2.709 .002 2.674 -.035 2.68 -.064 C 2.684 -.112 2.813 -.166 3.064 -.219 C 3.605 -.344 4.054 -.639 4.402 -1.105 C 4.752 -1.573 4.929 -2.111 4.929 -2.717 C 4.929 -3.623 4.595 -4.369 3.927 -4.959 C 3.259 -5.547 2.41 -5.84 1.379 -5.84 L .811 -5.818 L .121 -5.789 L -.477 -5.754 C -.871 -5.728 -1.184 -5.717 -1.416 -5.717 C -1.648 -5.717 -1.844 -5.727 -2.008 -5.746 C -2.244 -5.777 -2.412 -5.791 -2.51 -5.791 C -2.648 -5.791 -2.717 -5.737 -2.717 -5.633 C -2.717 -5.551 -2.643 -5.5 -2.494 -5.48 C -2.073 -5.42 -1.825 -5.189 -1.746 -4.782 C -1.672 -4.428 -1.635 -3.987 -1.635 -3.465 " fill="#231f20"/>
</g>
<g id="Layer-1" data-name="Artifact">
<path transform="matrix(1,0,0,-1,75.3708,19.737599)" d="M 0 0 L 0 -2.975 C 0 -3.201 .022 -3.338 .065 -3.385 C .105 -3.432 .233 -3.455 .445 -3.455 L 1.588 -3.455 C 2.107 -3.455 2.518 -3.426 2.818 -3.367 C 3.086 -3.313 3.258 -3.242 3.338 -3.152 C 3.416 -3.065 3.487 -2.857 3.553 -2.533 C 3.577 -2.41 3.641 -2.352 3.739 -2.355 C 3.834 -2.361 3.881 -2.428 3.881 -2.557 C 3.881 -2.59 3.877 -2.645 3.872 -2.719 C 3.828 -3.195 3.807 -3.631 3.807 -4.024 C 3.807 -4.326 3.821 -4.623 3.85 -4.918 C 3.858 -5.018 3.864 -5.088 3.864 -5.133 C 3.864 -5.256 3.816 -5.318 3.723 -5.318 C 3.618 -5.318 3.557 -5.264 3.536 -5.154 L 3.492 -4.947 C 3.434 -4.617 3.315 -4.393 3.137 -4.273 C 2.959 -4.154 2.658 -4.096 2.233 -4.096 L .6 -4.096 C .358 -4.096 .196 -4.119 .115 -4.17 C .033 -4.219 -.007 -4.315 -.007 -4.467 L 0 -4.711 L 0 -7.437 C 0 -7.857 .075 -8.117 .227 -8.223 C .377 -8.326 .756 -8.377 1.366 -8.377 C 3.301 -8.377 4.543 -7.94 5.096 -7.065 C 5.149 -6.982 5.205 -6.94 5.262 -6.934 C 5.354 -6.93 5.398 -6.992 5.398 -7.125 C 5.398 -7.445 5.219 -7.826 4.857 -8.27 C 4.424 -8.801 3.877 -9.065 3.215 -9.065 C 3.072 -9.065 2.881 -9.057 2.639 -9.037 C 1.696 -8.947 .918 -8.902 .301 -8.902 C -.563 -8.902 -1.173 -8.932 -1.527 -8.99 C -1.715 -9.024 -1.844 -9.041 -1.912 -9.041 C -2.07 -9.041 -2.148 -8.988 -2.148 -8.881 C -2.148 -8.799 -2.084 -8.74 -1.955 -8.705 L -1.674 -8.623 C -1.316 -8.524 -1.139 -8.18 -1.139 -7.588 L -1.132 -7.107 L -1.132 -.857 C -1.132 -.152 -1.209 .322 -1.363 .566 C -1.52 .81 -1.822 .935 -2.27 .935 C -2.412 .935 -2.484 .98 -2.484 1.072 C -2.484 1.209 -2.375 1.277 -2.152 1.277 C -2.029 1.277 -1.863 1.267 -1.656 1.24 C -.951 1.162 -.103 1.121 .889 1.121 C 1.49 1.121 2.023 1.131 2.487 1.15 L 3.538 1.203 C 3.829 1.213 4.008 1.223 4.07 1.232 C 4.203 1.252 4.303 1.262 4.366 1.262 C 4.529 1.262 4.61 1.189 4.61 1.047 C 4.61 1.002 4.604 .947 4.588 .877 C 4.572 .81 4.553 .611 4.526 .287 L 4.495 -.148 C 4.471 -.434 4.445 -.611 4.42 -.684 C 4.397 -.754 4.34 -.793 4.254 -.797 C 4.158 -.803 4.11 -.729 4.11 -.576 L 4.11 -.385 C 4.11 -.227 4.08 -.076 4.022 .066 C 3.928 .289 3.739 .435 3.454 .51 C 3.168 .584 2.645 .621 1.883 .621 L .725 .621 C .42 .621 .223 .584 .135 .506 C .045 .43 0 .262 0 0 " fill="#231f20"/>
</g>
<g id="Layer-1" data-name="Artifact">
<path transform="matrix(1,0,0,-1,86.3103,26.6751)" d="M 0 0 L .006 -.26 C .006 -.852 .063 -1.201 .176 -1.311 C .291 -1.418 .66 -1.473 1.285 -1.473 C 2.209 -1.473 3.008 -1.363 3.688 -1.145 C 4.365 -.926 4.799 -.637 4.986 -.277 C 5.055 -.145 5.123 -.078 5.193 -.078 C 5.273 -.078 5.311 -.127 5.305 -.225 C 5.285 -.549 5.125 -.906 4.824 -1.293 C 4.4 -1.828 3.711 -2.096 2.76 -2.096 C 2.602 -2.096 2.42 -2.09 2.211 -2.074 L 1.412 -2.016 C .943 -1.982 .447 -1.965 -.076 -1.965 C -.684 -1.965 -1.191 -1.994 -1.6 -2.053 C -1.773 -2.076 -1.912 -2.092 -2.016 -2.096 C -2.139 -2.102 -2.201 -2.059 -2.201 -1.967 C -2.201 -1.889 -2.133 -1.83 -1.998 -1.793 C -1.656 -1.69 -1.426 -1.537 -1.309 -1.338 C -1.191 -1.137 -1.133 -.801 -1.133 -.326 L -1.125 .014 L -1.125 6.633 C -1.125 7.289 -1.393 7.67 -1.926 7.779 L -2.262 7.846 C -2.379 7.871 -2.438 7.918 -2.438 7.99 C -2.438 8.102 -2.354 8.158 -2.188 8.158 C -2.074 8.158 -1.918 8.148 -1.721 8.129 C -1.387 8.101 -1.01 8.084 -.59 8.084 C -.137 8.084 .273 8.096 .643 8.119 C .83 8.129 .936 8.133 .961 8.133 C 1.078 8.133 1.139 8.098 1.139 8.023 C 1.139 7.918 1.066 7.848 .924 7.813 L .664 7.754 C .221 7.646 0 7.205 0 6.43 Z " fill="#231f20"/>
</g>
<g id="Layer-1" data-name="Artifact">
<path transform="matrix(1,0,0,-1,97.1579,26.6751)" d="M 0 0 L .008 -.26 C .008 -.852 .063 -1.201 .178 -1.311 C .291 -1.418 .66 -1.473 1.287 -1.473 C 2.209 -1.473 3.01 -1.363 3.688 -1.145 C 4.365 -.926 4.799 -.637 4.986 -.277 C 5.058 -.145 5.125 -.078 5.193 -.078 C 5.273 -.078 5.311 -.127 5.308 -.225 C 5.287 -.549 5.125 -.906 4.824 -1.293 C 4.4 -1.828 3.711 -2.096 2.76 -2.096 C 2.603 -2.096 2.42 -2.09 2.213 -2.074 L 1.412 -2.016 C .943 -1.982 .447 -1.965 -.074 -1.965 C -.682 -1.965 -1.19 -1.994 -1.6 -2.053 C -1.772 -2.076 -1.912 -2.092 -2.014 -2.096 C -2.139 -2.102 -2.199 -2.059 -2.199 -1.967 C -2.199 -1.889 -2.133 -1.83 -1.998 -1.793 C -1.656 -1.69 -1.424 -1.537 -1.309 -1.338 C -1.19 -1.137 -1.133 -.801 -1.133 -.326 L -1.125 .014 L -1.125 6.633 C -1.125 7.289 -1.393 7.67 -1.926 7.779 L -2.26 7.846 C -2.379 7.871 -2.438 7.918 -2.438 7.99 C -2.438 8.102 -2.354 8.158 -2.186 8.158 C -2.074 8.158 -1.918 8.148 -1.721 8.129 C -1.385 8.101 -1.01 8.084 -.59 8.084 C -.137 8.084 .275 8.096 .645 8.119 C .832 8.129 .938 8.133 .961 8.133 C 1.08 8.133 1.139 8.098 1.139 8.023 C 1.139 7.918 1.066 7.848 .924 7.813 L .666 7.754 C .221 7.646 0 7.205 0 6.43 Z " fill="#231f20"/>
</g>
<g id="Layer-1" data-name="Artifact">
<path transform="matrix(1,0,0,-1,143.1872,13.972)" d="M 0 0 C .752 0 1.389 -.106 1.91 -.322 L 2.637 -.627 C 2.701 -.654 2.764 -.668 2.828 -.668 C 2.912 -.668 2.996 -.635 3.08 -.562 L 3.228 -.437 C 3.248 -.408 3.287 -.395 3.344 -.395 C 3.52 -.389 3.607 -.56 3.607 -.912 C 3.607 -1.031 3.652 -1.387 3.744 -1.977 L 3.914 -3.064 C 3.949 -3.295 3.967 -3.44 3.967 -3.496 C 3.967 -3.715 3.893 -3.824 3.74 -3.824 C 3.623 -3.824 3.51 -3.654 3.395 -3.314 C 3.143 -2.553 2.627 -1.926 1.853 -1.432 C 1.078 -.937 .215 -.689 -.738 -.689 C -1.496 -.689 -2.129 -.914 -2.637 -1.363 C -3.145 -1.81 -3.398 -2.369 -3.398 -3.041 C -3.398 -3.635 -3.232 -4.146 -2.904 -4.576 C -2.615 -4.943 -2.301 -5.211 -1.959 -5.381 C -1.617 -5.551 -.779 -5.856 .557 -6.303 C 3.158 -7.154 4.459 -8.551 4.459 -10.492 C 4.459 -11.81 3.98 -12.887 3.025 -13.723 C 2.068 -14.56 .842 -14.98 -.656 -14.98 C -1.199 -14.98 -1.795 -14.902 -2.445 -14.748 C -3.096 -14.592 -3.572 -14.414 -3.875 -14.209 C -4.002 -14.123 -4.088 -14.035 -4.129 -13.939 C -4.172 -13.844 -4.234 -13.6 -4.318 -13.205 C -4.334 -13.148 -4.422 -12.828 -4.584 -12.242 C -4.768 -11.606 -4.857 -11.158 -4.857 -10.889 C -4.857 -10.678 -4.787 -10.576 -4.645 -10.582 C -4.516 -10.59 -4.402 -10.764 -4.301 -11.102 C -4.049 -11.977 -3.516 -12.711 -2.703 -13.303 C -1.889 -13.896 -1.004 -14.19 -.051 -14.19 C .916 -14.19 1.734 -13.906 2.404 -13.336 C 3.074 -12.766 3.41 -12.072 3.41 -11.256 C 3.41 -10.475 3.102 -9.814 2.482 -9.279 C 2.166 -9.006 1.252 -8.615 -.258 -8.106 C -1.818 -7.58 -2.922 -6.996 -3.572 -6.355 C -4.223 -5.715 -4.547 -4.885 -4.547 -3.863 C -4.547 -2.725 -4.123 -1.795 -3.275 -1.078 C -2.428 -.359 -1.338 0 0 0 " fill="#231f20"/>
</g>
<g id="Layer-1" data-name="Artifact">
<path transform="matrix(1,0,0,-1,158.3884,19.3549)" d="M 0 0 L -2.074 0 C -2.291 0 -2.428 -.029 -2.484 -.088 C -2.541 -.146 -2.57 -.293 -2.57 -.524 L -2.57 -7.779 L -2.563 -8.068 C -2.537 -8.645 -2.215 -8.988 -1.59 -9.096 C -1.418 -9.125 -1.332 -9.182 -1.332 -9.264 C -1.332 -9.371 -1.4 -9.424 -1.539 -9.424 C -1.598 -9.424 -1.719 -9.41 -1.9 -9.381 C -1.996 -9.365 -2.219 -9.359 -2.568 -9.359 L -3.109 -9.352 L -3.688 -9.359 C -3.895 -9.359 -4.07 -9.365 -4.213 -9.381 C -4.496 -9.41 -4.66 -9.424 -4.709 -9.424 C -4.859 -9.424 -4.932 -9.371 -4.932 -9.266 C -4.932 -9.189 -4.852 -9.141 -4.687 -9.121 C -4.309 -9.072 -4.051 -8.967 -3.918 -8.807 C -3.785 -8.646 -3.719 -8.359 -3.719 -7.943 L -3.719 -.605 L -3.725 -.414 C -3.725 -.236 -3.752 -.123 -3.803 -.074 C -3.853 -.022 -3.975 0 -4.162 0 L -6.117 0 C -6.516 0 -6.805 -.08 -6.984 -.24 C -7.164 -.399 -7.303 -.701 -7.402 -1.146 C -7.447 -1.338 -7.514 -1.432 -7.602 -1.426 C -7.693 -1.422 -7.738 -1.355 -7.738 -1.227 C -7.738 -1.125 -7.709 -.936 -7.65 -.658 C -7.578 -.305 -7.541 -.012 -7.541 .219 C -7.541 .445 -7.516 .594 -7.463 .664 C -7.412 .736 -7.303 .772 -7.133 .772 L .824 .772 C 1.096 .772 1.26 .742 1.316 .685 C 1.371 .625 1.4 .449 1.4 .16 C 1.4 -.131 1.412 -.344 1.437 -.475 C 1.463 -.643 1.477 -.764 1.482 -.838 C 1.488 -.984 1.436 -1.064 1.326 -1.074 C 1.236 -1.078 1.176 -1.002 1.147 -.844 C 1.082 -.494 .98 -.266 .836 -.158 C .693 -.053 .416 0 0 0 " fill="#231f20"/>
</g>
<g id="Layer-1" data-name="Artifact">
<path transform="matrix(1,0,0,-1,165.9372,23.4467)" d="M 0 0 L .836 0 C 1.486 0 1.992 .178 2.363 .533 C 2.734 .891 2.918 1.377 2.918 1.996 C 2.918 2.715 2.666 3.305 2.162 3.768 C 1.658 4.231 1.016 4.461 .236 4.461 C -.055 4.461 -.256 4.414 -.367 4.316 C -.479 4.221 -.533 4.047 -.533 3.793 L -.527 3.549 L -.527 .533 C -.527 .301 -.496 .154 -.432 .092 C -.371 .029 -.229 0 0 0 M 2.174 -.162 L 4.211 -3.172 L 4.449 -3.525 C 5.078 -4.449 5.66 -4.93 6.193 -4.963 L 6.428 -4.978 C 6.516 -4.984 6.557 -5.017 6.553 -5.084 C 6.547 -5.158 6.437 -5.225 6.223 -5.283 C 6.01 -5.344 5.768 -5.373 5.496 -5.373 C 5.053 -5.373 4.656 -5.252 4.305 -5.008 C 3.951 -4.764 3.594 -4.367 3.228 -3.815 L 1.389 -1.008 L 1.285 -.846 C 1.168 -.642 .975 -.543 .709 -.543 L -.275 -.543 L -.437 -.572 C -.498 -.605 -.527 -.685 -.527 -.809 L -.527 -3.123 L -.52 -3.42 C -.52 -3.846 -.498 -4.135 -.457 -4.291 C -.416 -4.447 -.316 -4.586 -.158 -4.711 C .053 -4.879 .381 -4.984 .824 -5.029 C 1.002 -5.049 1.092 -5.103 1.098 -5.195 C 1.109 -5.293 1.027 -5.342 .853 -5.342 C .785 -5.342 .641 -5.33 .418 -5.309 C .217 -5.287 -.096 -5.275 -.52 -5.275 L -1.227 -5.267 L -1.611 -5.275 C -1.779 -5.275 -1.98 -5.287 -2.215 -5.311 C -2.408 -5.332 -2.541 -5.342 -2.615 -5.342 C -2.738 -5.342 -2.799 -5.291 -2.799 -5.19 C -2.799 -5.117 -2.738 -5.07 -2.615 -5.045 C -2.221 -4.973 -1.965 -4.793 -1.842 -4.51 C -1.721 -4.225 -1.658 -3.666 -1.658 -2.832 L -1.658 2.483 L -1.674 3.254 C -1.674 4.024 -1.941 4.451 -2.479 4.541 L -2.826 4.594 C -2.982 4.623 -3.063 4.68 -3.063 4.768 C -3.063 4.869 -2.977 4.922 -2.811 4.922 C -2.77 4.922 -2.596 4.912 -2.293 4.893 C -2.115 4.879 -1.897 4.871 -1.635 4.871 C -1.408 4.871 -1.02 4.889 -.471 4.924 C -.078 4.949 .27 4.963 .57 4.963 C 1.703 4.963 2.559 4.748 3.137 4.322 C 3.713 3.895 4.002 3.26 4.002 2.414 C 4.002 1.305 3.393 .445 2.174 -.162 " fill="#231f20"/>
</g>
<g id="Layer-1" data-name="Artifact">
<path transform="matrix(1,0,0,-1,181.9431,23.6234)" d="M 0 0 L -1.158 2.927 L -1.219 3.082 C -1.277 3.239 -1.342 3.321 -1.41 3.325 C -1.445 3.332 -1.484 3.284 -1.529 3.185 L -2.967 -.015 C -3.031 -.153 -3.065 -.245 -3.065 -.288 C -3.065 -.416 -2.951 -.481 -2.725 -.481 L -2.523 -.489 L -.295 -.489 C -.049 -.489 .074 -.427 .074 -.304 C .074 -.269 .06 -.212 .037 -.134 Z M -.088 -1.187 L -2.762 -1.187 C -3.125 -1.187 -3.352 -1.216 -3.44 -1.274 C -3.529 -1.334 -3.647 -1.532 -3.795 -1.868 L -4.277 -2.959 C -4.494 -3.459 -4.604 -3.831 -4.604 -4.073 C -4.604 -4.306 -4.545 -4.474 -4.428 -4.577 C -4.312 -4.681 -4.084 -4.771 -3.742 -4.845 C -3.594 -4.874 -3.518 -4.931 -3.512 -5.017 C -3.508 -5.099 -3.576 -5.14 -3.719 -5.14 C -3.773 -5.14 -3.857 -5.138 -3.971 -5.132 L -4.682 -5.091 C -4.918 -5.079 -5.191 -5.073 -5.502 -5.073 C -5.645 -5.073 -5.756 -5.077 -5.834 -5.082 C -6.086 -5.11 -6.225 -5.124 -6.248 -5.124 C -6.383 -5.124 -6.449 -5.077 -6.449 -4.987 C -6.449 -4.907 -6.406 -4.853 -6.322 -4.827 L -6.049 -4.747 C -5.951 -4.718 -5.816 -4.599 -5.648 -4.388 C -5.482 -4.179 -5.344 -3.959 -5.234 -3.733 L -5.02 -3.245 L -1.223 5.196 C -1.16 5.345 -1.09 5.418 -1.012 5.418 C -.934 5.418 -.867 5.347 -.812 5.202 L 2.363 -2.938 L 2.525 -3.337 C 2.758 -3.935 2.949 -4.306 3.103 -4.45 C 3.256 -4.597 3.566 -4.712 4.035 -4.796 C 4.187 -4.825 4.262 -4.884 4.256 -4.976 C 4.252 -5.058 4.184 -5.099 4.049 -5.099 C 4.006 -5.099 3.91 -5.095 3.768 -5.084 C 3.512 -5.062 3.055 -5.05 2.398 -5.05 C 1.713 -5.05 1.283 -5.063 1.109 -5.095 C 1.006 -5.114 .93 -5.124 .881 -5.124 C .752 -5.124 .687 -5.073 .687 -4.972 C .687 -4.896 .75 -4.845 .873 -4.819 L 1.103 -4.769 C 1.352 -4.718 1.477 -4.55 1.477 -4.263 C 1.477 -4 1.326 -3.48 1.027 -2.698 L .658 -1.72 C .553 -1.448 .473 -1.29 .414 -1.249 C .355 -1.206 .187 -1.187 -.088 -1.187 " fill="#231f20"/>
</g>
<g id="Layer-1" data-name="Artifact">
<path transform="matrix(1,0,0,-1,192.6149,18.3783)" d="M 0 0 C .527 0 .975 -.076 1.34 -.227 L 1.85 -.44 C 1.895 -.461 1.937 -.471 1.983 -.471 C 2.041 -.471 2.1 -.445 2.16 -.396 L 2.262 -.309 C 2.277 -.289 2.305 -.279 2.344 -.279 C 2.467 -.272 2.527 -.395 2.527 -.641 C 2.527 -.725 2.561 -.975 2.625 -1.389 L 2.744 -2.147 C 2.77 -2.313 2.781 -2.414 2.781 -2.453 C 2.781 -2.604 2.729 -2.682 2.623 -2.682 C 2.541 -2.682 2.461 -2.564 2.379 -2.326 C 2.203 -1.795 1.842 -1.354 1.299 -1.01 C .756 -.664 .15 -.492 -.52 -.492 C -1.051 -.492 -1.496 -.647 -1.852 -.963 C -2.207 -1.274 -2.387 -1.666 -2.387 -2.135 C -2.387 -2.549 -2.27 -2.906 -2.039 -3.207 C -1.836 -3.465 -1.617 -3.652 -1.379 -3.77 C -1.139 -3.889 -.553 -4.104 .385 -4.414 C 2.207 -5.01 3.117 -5.988 3.117 -7.35 C 3.117 -8.271 2.783 -9.024 2.111 -9.611 C 1.443 -10.197 .582 -10.492 -.469 -10.492 C -.848 -10.492 -1.266 -10.438 -1.721 -10.328 C -2.178 -10.219 -2.51 -10.094 -2.723 -9.949 C -2.813 -9.891 -2.871 -9.828 -2.9 -9.762 C -2.93 -9.695 -2.975 -9.522 -3.033 -9.248 C -3.043 -9.209 -3.103 -8.983 -3.219 -8.576 C -3.348 -8.133 -3.412 -7.815 -3.412 -7.629 C -3.412 -7.481 -3.361 -7.41 -3.26 -7.416 C -3.17 -7.42 -3.088 -7.541 -3.017 -7.777 C -2.84 -8.391 -2.467 -8.904 -1.896 -9.32 C -1.326 -9.733 -.707 -9.94 -.039 -9.94 C .639 -9.94 1.213 -9.742 1.684 -9.342 C 2.152 -8.942 2.389 -8.457 2.389 -7.885 C 2.389 -7.336 2.172 -6.875 1.738 -6.5 C 1.516 -6.307 .875 -6.033 -.184 -5.678 C -1.277 -5.309 -2.051 -4.899 -2.506 -4.451 C -2.963 -4.002 -3.189 -3.42 -3.189 -2.705 C -3.189 -1.908 -2.892 -1.256 -2.299 -.754 C -1.705 -.252 -.937 0 0 0 " fill="#231f20"/>
</g>
<g id="Layer-1" data-name="Artifact">
<path transform="matrix(1,0,0,-1,202.1482,18.3783)" d="M 0 0 C .527 0 .973 -.076 1.338 -.227 L 1.85 -.44 C 1.892 -.461 1.937 -.471 1.982 -.471 C 2.041 -.471 2.1 -.445 2.158 -.396 L 2.262 -.309 C 2.277 -.289 2.303 -.279 2.344 -.279 C 2.465 -.272 2.527 -.395 2.527 -.641 C 2.527 -.725 2.56 -.975 2.625 -1.389 L 2.744 -2.147 C 2.77 -2.313 2.781 -2.414 2.781 -2.453 C 2.781 -2.604 2.728 -2.682 2.623 -2.682 C 2.541 -2.682 2.461 -2.564 2.379 -2.326 C 2.201 -1.795 1.842 -1.354 1.299 -1.01 C .756 -.664 .148 -.492 -.52 -.492 C -1.051 -.492 -1.496 -.647 -1.852 -.963 C -2.209 -1.274 -2.387 -1.666 -2.387 -2.135 C -2.387 -2.549 -2.272 -2.906 -2.039 -3.207 C -1.838 -3.465 -1.617 -3.652 -1.379 -3.77 C -1.139 -3.889 -.553 -4.104 .385 -4.414 C 2.205 -5.01 3.117 -5.988 3.117 -7.35 C 3.117 -8.271 2.783 -9.024 2.111 -9.611 C 1.441 -10.197 .582 -10.492 -.469 -10.492 C -.848 -10.492 -1.266 -10.438 -1.721 -10.328 C -2.178 -10.219 -2.512 -10.094 -2.723 -9.949 C -2.813 -9.891 -2.871 -9.828 -2.9 -9.762 C -2.93 -9.695 -2.975 -9.522 -3.033 -9.248 C -3.045 -9.209 -3.105 -8.983 -3.219 -8.576 C -3.348 -8.133 -3.412 -7.815 -3.412 -7.629 C -3.412 -7.481 -3.361 -7.41 -3.26 -7.416 C -3.17 -7.42 -3.09 -7.541 -3.018 -7.777 C -2.842 -8.391 -2.467 -8.904 -1.897 -9.32 C -1.328 -9.733 -.709 -9.94 -.039 -9.94 C .639 -9.94 1.213 -9.742 1.684 -9.342 C 2.152 -8.942 2.387 -8.457 2.387 -7.885 C 2.387 -7.336 2.172 -6.875 1.738 -6.5 C 1.516 -6.307 .875 -6.033 -.184 -5.678 C -1.277 -5.309 -2.051 -4.899 -2.506 -4.451 C -2.963 -4.002 -3.19 -3.42 -3.19 -2.705 C -3.19 -1.908 -2.893 -1.256 -2.299 -.754 C -1.705 -.252 -.94 0 0 0 " fill="#231f20"/>
</g>
<g id="Layer-1" data-name="Artifact">
<path transform="matrix(1,0,0,-1,210.7556,19.737599)" d="M 0 0 L 0 -2.975 C 0 -3.201 .021 -3.338 .064 -3.385 C .105 -3.432 .232 -3.455 .445 -3.455 L 1.588 -3.455 C 2.105 -3.455 2.516 -3.426 2.818 -3.367 C 3.084 -3.313 3.258 -3.242 3.336 -3.152 C 3.416 -3.065 3.488 -2.857 3.553 -2.533 C 3.576 -2.41 3.639 -2.352 3.738 -2.355 C 3.832 -2.361 3.881 -2.428 3.881 -2.557 C 3.881 -2.59 3.877 -2.645 3.871 -2.719 C 3.828 -3.195 3.807 -3.631 3.807 -4.024 C 3.807 -4.326 3.82 -4.623 3.85 -4.918 C 3.859 -5.018 3.863 -5.088 3.863 -5.133 C 3.863 -5.256 3.816 -5.318 3.723 -5.318 C 3.617 -5.318 3.555 -5.264 3.535 -5.154 L 3.492 -4.947 C 3.432 -4.617 3.314 -4.393 3.135 -4.273 C 2.959 -4.154 2.658 -4.096 2.234 -4.096 L .6 -4.096 C .357 -4.096 .195 -4.119 .115 -4.17 C .033 -4.219 -.008 -4.315 -.008 -4.467 L 0 -4.711 L 0 -7.437 C 0 -7.857 .074 -8.117 .227 -8.223 C .375 -8.326 .756 -8.377 1.365 -8.377 C 3.299 -8.377 4.544 -7.94 5.095 -7.065 C 5.151 -6.982 5.206 -6.94 5.263 -6.934 C 5.353 -6.93 5.399 -6.992 5.399 -7.125 C 5.399 -7.445 5.218 -7.826 4.858 -8.27 C 4.424 -8.801 3.877 -9.065 3.215 -9.065 C 3.072 -9.065 2.879 -9.057 2.639 -9.037 C 1.695 -8.947 .916 -8.902 .299 -8.902 C -.562 -8.902 -1.174 -8.932 -1.527 -8.99 C -1.715 -9.024 -1.844 -9.041 -1.912 -9.041 C -2.07 -9.041 -2.148 -8.988 -2.148 -8.881 C -2.148 -8.799 -2.084 -8.74 -1.957 -8.705 L -1.674 -8.623 C -1.318 -8.524 -1.139 -8.18 -1.139 -7.588 L -1.133 -7.107 L -1.133 -.857 C -1.133 -.152 -1.209 .322 -1.365 .566 C -1.522 .81 -1.822 .935 -2.272 .935 C -2.414 .935 -2.486 .98 -2.486 1.072 C -2.486 1.209 -2.375 1.277 -2.152 1.277 C -2.029 1.277 -1.863 1.267 -1.656 1.24 C -.951 1.162 -.104 1.121 .889 1.121 C 1.49 1.121 2.023 1.131 2.486 1.15 L 3.537 1.203 C 3.828 1.213 4.006 1.223 4.07 1.232 C 4.203 1.252 4.301 1.262 4.365 1.262 C 4.53 1.262 4.61 1.189 4.61 1.047 C 4.61 1.002 4.604 .947 4.589 .877 C 4.573 .81 4.552 .611 4.525 .287 L 4.496 -.148 C 4.469 -.434 4.445 -.611 4.42 -.684 C 4.396 -.754 4.34 -.793 4.254 -.797 C 4.158 -.803 4.109 -.729 4.109 -.576 L 4.109 -.385 C 4.109 -.227 4.08 -.076 4.021 .066 C 3.928 .289 3.738 .435 3.453 .51 C 3.168 .584 2.643 .621 1.881 .621 L .723 .621 C .418 .621 .221 .584 .133 .506 C .045 .43 0 .262 0 0 " fill="#231f20"/>
</g>
<g id="Layer-1" data-name="Artifact">
<path transform="matrix(1,0,0,-1,222.2194,23.4467)" d="M 0 0 L .836 0 C 1.486 0 1.994 .178 2.363 .533 C 2.734 .891 2.92 1.377 2.92 1.996 C 2.92 2.715 2.666 3.305 2.164 3.768 C 1.658 4.231 1.018 4.461 .236 4.461 C -.053 4.461 -.256 4.414 -.367 4.316 C -.479 4.221 -.533 4.047 -.533 3.793 L -.525 3.549 L -.525 .533 C -.525 .301 -.496 .154 -.434 .092 C -.371 .029 -.229 0 0 0 M 2.174 -.162 L 4.213 -3.172 L 4.449 -3.525 C 5.078 -4.449 5.66 -4.93 6.191 -4.963 L 6.428 -4.978 C 6.516 -4.984 6.559 -5.017 6.553 -5.084 C 6.549 -5.158 6.437 -5.225 6.225 -5.283 C 6.01 -5.344 5.768 -5.373 5.496 -5.373 C 5.055 -5.373 4.656 -5.252 4.305 -5.008 C 3.951 -4.764 3.594 -4.367 3.229 -3.815 L 1.391 -1.008 L 1.287 -.846 C 1.168 -.642 .977 -.543 .709 -.543 L -.275 -.543 L -.437 -.572 C -.496 -.605 -.525 -.685 -.525 -.809 L -.525 -3.123 L -.52 -3.42 C -.52 -3.846 -.498 -4.135 -.457 -4.291 C -.414 -4.447 -.314 -4.586 -.156 -4.711 C .055 -4.879 .383 -4.984 .826 -5.029 C 1.002 -5.049 1.094 -5.103 1.098 -5.195 C 1.107 -5.293 1.025 -5.342 .855 -5.342 C .785 -5.342 .641 -5.33 .42 -5.309 C .217 -5.287 -.096 -5.275 -.518 -5.275 L -1.227 -5.267 L -1.609 -5.275 C -1.777 -5.275 -1.979 -5.287 -2.215 -5.311 C -2.408 -5.332 -2.539 -5.342 -2.613 -5.342 C -2.736 -5.342 -2.799 -5.291 -2.799 -5.19 C -2.799 -5.117 -2.736 -5.07 -2.615 -5.045 C -2.221 -4.973 -1.965 -4.793 -1.842 -4.51 C -1.719 -4.225 -1.658 -3.666 -1.658 -2.832 L -1.658 2.483 L -1.672 3.254 C -1.672 4.024 -1.941 4.451 -2.477 4.541 L -2.824 4.594 C -2.982 4.623 -3.061 4.68 -3.061 4.768 C -3.061 4.869 -2.977 4.922 -2.811 4.922 C -2.77 4.922 -2.596 4.912 -2.291 4.893 C -2.115 4.879 -1.895 4.871 -1.633 4.871 C -1.406 4.871 -1.02 4.889 -.473 4.924 C -.078 4.949 .27 4.963 .57 4.963 C 1.703 4.963 2.559 4.748 3.137 4.322 C 3.713 3.895 4.002 3.26 4.002 2.414 C 4.002 1.305 3.393 .445 2.174 -.162 " fill="#231f20"/>
</g>
<g id="Layer-1" data-name="Artifact">
<path transform="matrix(1,0,0,-1,127.7126,29.2381)" d="M 0 0 L 0 14.008 L -7.863 14.008 C -7.592 13.952 -7.316 13.872 -7.033 13.762 L -6.522 13.567 L -6.412 13.545 C -6.355 13.551 -6.277 13.592 -6.184 13.664 C -6.109 13.721 -6.051 13.751 -5.998 13.751 C -5.801 13.758 -5.701 13.497 -5.701 12.969 L -5.67 12.373 L -5.611 11.518 C -5.607 11.336 -5.604 11.225 -5.604 11.182 C -5.604 11.022 -5.686 10.942 -5.844 10.942 C -5.939 10.942 -6.018 11.031 -6.074 11.204 C -6.277 11.794 -6.691 12.324 -7.316 12.787 C -7.941 13.254 -8.555 13.488 -9.152 13.488 C -9.662 13.488 -10.096 13.33 -10.457 13.02 C -10.818 12.709 -10.998 12.332 -10.998 11.891 C -10.998 11.479 -10.83 11.008 -10.486 10.479 C -10.148 9.952 -9.574 9.268 -8.764 8.426 L -6.027 5.604 C -5.318 4.873 -4.314 3.95 -3.012 2.834 C -2.641 3.467 -2.455 4.172 -2.455 4.949 C -2.455 5.522 -2.568 6.001 -2.793 6.385 C -3.016 6.77 -3.32 6.998 -3.703 7.074 L -4.215 7.17 C -4.432 7.213 -4.535 7.309 -4.527 7.459 C -4.522 7.559 -4.441 7.608 -4.289 7.608 C -4.23 7.608 -4.133 7.598 -3.994 7.575 C -3.777 7.547 -3.15 7.533 -2.111 7.533 C -1.777 7.533 -1.48 7.547 -1.211 7.575 C -.957 7.598 -.775 7.608 -.666 7.608 C -.535 7.608 -.467 7.551 -.459 7.436 C -.453 7.324 -.549 7.231 -.752 7.16 C -.984 7.074 -1.145 6.926 -1.234 6.723 C -1.326 6.52 -1.393 6.151 -1.436 5.615 C -1.543 4.385 -1.861 3.309 -2.393 2.379 Z M -9.396 14.008 L -14.69 14.008 L -14.69 5.133 C -14.543 6.108 -14.119 6.962 -13.393 7.684 C -12.891 8.192 -12.189 8.553 -11.283 8.772 C -11.928 9.604 -12.25 10.422 -12.25 11.225 C -12.25 12.086 -11.926 12.783 -11.277 13.309 C -10.782 13.713 -10.13 13.913 -9.396 14.008 M -14.69 3.657 L -14.69 -.682 L -11.062 -.682 C -11.773 -.424 -12.417 -.053 -12.984 .444 C -13.984 1.317 -14.534 2.396 -14.69 3.657 M -12.252 2.213 C -11.102 .889 -9.633 .227 -7.844 .227 C -6.359 .227 -5.119 .666 -4.119 1.541 C -4.352 1.744 -4.502 1.879 -4.564 1.944 L -5.609 2.825 C -6.195 3.33 -6.971 4.075 -7.93 5.057 C -8.889 6.037 -9.645 6.863 -10.195 7.528 C -10.647 8.065 -11.025 8.332 -11.334 8.332 C -11.82 8.332 -12.299 8.039 -12.775 7.454 C -13.266 6.86 -13.51 6.129 -13.51 5.262 C -13.51 4.2 -13.092 3.182 -12.252 2.213 M -3.445 1.02 C -4.352 .217 -5.286 -.333 -6.245 -.682 L -.887 -.682 C -1.482 -.402 -2.332 .163 -3.445 1.02 " fill="#231f20"/>
</g>
<g id="Layer-1" data-name="Artifact">
</g>
<path transform="matrix(1,0,0,-1,0,54)" stroke-width=".65" stroke-linecap="butt" stroke-miterlimit="4" stroke-linejoin="miter" fill="none" stroke="#231f20" d="M 128.937 22.756 L 111.796 22.756 L 111.796 39.897005 L 128.937 39.897005 Z "/>
</g>
</g>
</svg>
