<svg version="1" xmlns="http://www.w3.org/2000/svg" width="933.333" height="933.333" viewBox="0 0 700.000000 700.000000"><path d="M.1 209.7l.1 209.8 2.3-10.8c3.4-15.7 8.8-31.3 15.9-46.2 11.2-23.4 22-38.8 40.6-57.9 17.6-18.1 32.9-28.8 56-39.2 12-5.4 31.6-12.3 41.3-14.4 3.1-.7 5.7-1.5 5.7-1.6 0-.2-2-3-4.5-6.3-12.9-17-26.5-42.3-32.8-61.1-11.8-35-11.2-71.7 1.8-102 8-18.7 25.5-39.9 42.8-51.8 9.6-6.7 27.3-15.1 39.7-19.1 7.8-2.5 24.1-6.2 37-8.4 1.4-.2-53.4-.5-121.7-.6L0 0l.1 209.7z"/><path d="M339.5 3.5c13.1 3.6 17.1 4.9 37.4 12.7 7.5 2.9 15.2 5.2 17.2 5.2 2.6 0 5.4-1.1 10-4.2 7.5-5.1 10-5.8 13.9-4.2 6.6 2.7 9.4 12.5 10.5 36.5.3 8.2 1.5 27.8 2.5 43.5 3.1 44.4 2.7 49.7-3.6 52-7.8 3-13.6-1.1-17.3-12.1C394.8 86.8 340 39.7 287.5 27.4c-11.9-2.8-37.9-2.6-49 .4-24.1 6.5-46.1 23.8-55.7 43.7-20 41.7 3.1 91 82.7 176.5 11.5 12.3 121.7 126.1 149 153.9 34.4 34.9 80.2 77.2 130.4 120.4 13.2 11.5 11.3 12 19.3-5 25.4-53.8 24.9-122-1.2-159.7-6.9-10-14.5-16.7-24.5-21.7-6.5-3.2-11.2-4.6-25.7-7.4-9.7-1.8-19.4-4.3-21.7-5.4-6.6-3.4-9.2-11-5.1-15.1 2.8-2.8 6.1-3.4 14.4-2.6 22.7 2.1 35.6 2.5 77.6 2.5 32.5.1 51.6-.4 63.5-1.4 9.4-.8 20.3-1.5 24.3-1.5 6.4 0 7.6.3 9.7 2.5 6 5.9 1.7 13.7-10.1 18.4-7.5 3-15.6 8.4-18.7 12.4-8.3 10.9-11.4 24.1-15.7 66.7-5.3 52.3-17.5 95.9-37.8 135.5l-6.9 13.4 56.4 56.3c31 31 56.6 56.5 56.9 56.7.2.2.4-149.7.4-333.2V0L513.8.1H327.5l12 3.4zM145 272.6c-7.7 2-20.3 8.4-28.2 14.4-8.8 6.7-23.8 22.6-31.7 33.6C55 362.9 48.1 422.1 66.6 478c17.2 51.8 60.6 105.1 112.4 138.3 11.3 7.3 38 20.1 51.5 24.7 31.6 10.9 59.4 15.2 96.5 15.1 30.1 0 47.8-2.1 74-8.6 27.4-6.9 52.8-18 75.3-33 12.9-8.5 26.2-18.9 26.2-20.4 0-1.3-11.7-11.7-40-35.8-48.9-41.6-59.3-51.1-107.3-98.8-54.1-53.6-94.6-96.5-130.8-138.6-27.8-32.3-39.3-42.7-53-47.8-6.5-2.5-18-2.7-26.4-.5zM.1 598.7L0 700l85.8-.1c52.2 0 84.9-.4 83.7-.9-1.1-.5-6.9-3-13-5.6-21.3-8.9-44.4-22.4-63.5-37.2-11.3-8.8-33.4-30.5-42.5-41.8C24.5 582.2 8.4 545.3.7 500c-.2-1.4-.5 43.1-.6 98.7zM528 625.7c-31.8 27.4-73.1 53.1-110.4 68.4l-14.1 5.8h127c105.6 0 126.5-.2 124-1.3-3.6-1.5-21.1-11.5-31-17.6-17.7-10.8-46.7-31-72.5-50.5-7.4-5.6-13.9-10.4-14.5-10.7-.5-.3-4.4 2.3-8.5 5.9z"/></svg>